<svg width="279" height="122" viewBox="0 0 279 122" fill="none" xmlns="http://www.w3.org/2000/svg">
<path d="M128.475 28.5412C122.029 29.7129 117.404 29.4655 116.729 27.5851C115.665 24.6207 124.82 18.7204 137.177 14.4066C149.535 10.0927 160.415 8.99876 161.479 11.9632C162.158 13.8552 158.674 16.9431 152.852 20.0512" stroke="#364D9D" stroke-width="2"/>
<ellipse cx="138.739" cy="19.2872" rx="14.4337" ry="14.2347" fill="#364D9D"/>
<path fill-rule="evenodd" clip-rule="evenodd" d="M132.003 14.9449C132.003 14.3732 132.473 13.9097 133.053 13.9097H144.6C145.18 13.9097 145.65 14.3732 145.65 14.9449V24.2622C145.65 24.8339 145.18 25.2974 144.6 25.2974H133.053C132.473 25.2974 132.003 24.8339 132.003 24.2622V14.9449ZM144.6 14.9449H133.053V24.2622H144.6V14.9449Z" fill="#EDECEE"/>
<path fill-rule="evenodd" clip-rule="evenodd" d="M132.003 16.4978C132.003 16.212 132.238 15.9802 132.528 15.9802H145.125C145.415 15.9802 145.65 16.212 145.65 16.4978C145.65 16.7837 145.415 17.0155 145.125 17.0155H132.528C132.238 17.0155 132.003 16.7837 132.003 16.4978Z" fill="#EDECEE"/>
<path fill-rule="evenodd" clip-rule="evenodd" d="M136.202 18.0508C136.492 18.0508 136.727 18.2825 136.727 18.5684C136.727 19.1175 136.948 19.6442 137.342 20.0325C137.736 20.4208 138.27 20.6389 138.827 20.6389C139.383 20.6389 139.917 20.4208 140.311 20.0325C140.705 19.6442 140.926 19.1175 140.926 18.5684C140.926 18.2825 141.161 18.0508 141.451 18.0508C141.741 18.0508 141.976 18.2825 141.976 18.5684C141.976 19.3921 141.644 20.1821 141.053 20.7645C140.463 21.3469 139.662 21.6742 138.827 21.6742C137.991 21.6742 137.19 21.3469 136.6 20.7645C136.009 20.1821 135.677 19.3921 135.677 18.5684C135.677 18.2825 135.912 18.0508 136.202 18.0508Z" fill="#EDECEE"/>
<path d="M128.475 28.5413C129.563 28.3436 130.702 28.1055 131.883 27.8281M152.852 20.0512C151.755 20.6369 150.575 21.2233 149.324 21.8026" stroke="#F7F7F8" stroke-width="2"/>
<path d="M80.6666 72V59.02H85.9066C86.9066 59.02 87.7366 59.1767 88.3966 59.49C89.0566 59.7967 89.55 60.21 89.8766 60.73C90.2033 61.25 90.3666 61.8267 90.3666 62.46C90.3666 63.1933 90.16 63.82 89.7466 64.34C89.34 64.86 88.7666 65.2267 88.0266 65.44C88.5133 65.54 88.95 65.7233 89.3366 65.99C89.7233 66.2567 90.0266 66.5933 90.2466 67C90.4733 67.4067 90.5866 67.8733 90.5866 68.4C90.5866 68.8133 90.5133 69.23 90.3666 69.65C90.2266 70.07 89.98 70.46 89.6266 70.82C89.28 71.1733 88.8033 71.46 88.1966 71.68C87.5966 71.8933 86.84 72 85.9266 72H80.6666ZM83.0266 69.94H85.8666C86.62 69.94 87.17 69.79 87.5166 69.49C87.87 69.1833 88.0466 68.7733 88.0466 68.26C88.0466 67.7467 87.8666 67.3367 87.5066 67.03C87.1466 66.7167 86.6 66.56 85.8666 66.56H83.0266V69.94ZM83.0266 61.06V64.5H85.8066C86.5066 64.5 87.0366 64.3467 87.3966 64.04C87.7633 63.7267 87.9466 63.3 87.9466 62.76C87.9466 62.2467 87.7666 61.8367 87.4066 61.53C87.0533 61.2167 86.5266 61.06 85.8266 61.06H83.0266ZM97.4554 72.28C96.5687 72.28 95.7654 72.09 95.0454 71.71C94.3321 71.33 93.7654 70.7633 93.3454 70.01C92.9254 69.25 92.7154 68.3 92.7154 67.16C92.7154 66 92.9254 65.04 93.3454 64.28C93.7654 63.52 94.3321 62.9533 95.0454 62.58C95.7654 62.2067 96.5687 62.02 97.4554 62.02C98.3287 62.02 99.1187 62.2067 99.8254 62.58C100.539 62.9533 101.105 63.52 101.525 64.28C101.945 65.04 102.155 66 102.155 67.16C102.155 68.3 101.945 69.25 101.525 70.01C101.105 70.7633 100.539 71.33 99.8254 71.71C99.1187 72.09 98.3287 72.28 97.4554 72.28ZM97.3754 70.22C97.8421 70.22 98.2554 70.1067 98.6154 69.88C98.9821 69.6467 99.2687 69.3033 99.4754 68.85C99.6887 68.3967 99.7954 67.8333 99.7954 67.16C99.7954 66.1333 99.5921 65.36 99.1854 64.84C98.7854 64.32 98.2354 64.06 97.5354 64.06C97.0621 64.06 96.6421 64.1767 96.2754 64.41C95.9087 64.6367 95.6187 64.98 95.4054 65.44C95.1987 65.9 95.0954 66.4733 95.0954 67.16C95.0954 68.1733 95.2987 68.9367 95.7054 69.45C96.1187 69.9633 96.6754 70.22 97.3754 70.22ZM111.144 72L110.844 69.64V65.74C110.844 65.06 110.704 64.5567 110.424 64.23C110.15 63.9033 109.684 63.74 109.024 63.74C108.644 63.74 108.314 63.7967 108.034 63.91C107.754 64.0233 107.537 64.1867 107.384 64.4C107.237 64.6067 107.164 64.86 107.164 65.16H104.584C104.584 64.4267 104.76 63.83 105.114 63.37C105.467 62.9033 105.974 62.5633 106.634 62.35C107.3 62.13 108.097 62.02 109.024 62.02C109.864 62.02 110.597 62.1567 111.224 62.43C111.85 62.6967 112.337 63.11 112.684 63.67C113.03 64.23 113.204 64.9467 113.204 65.82V72H111.144ZM107.964 72.28C107.13 72.28 106.434 72.1367 105.874 71.85C105.32 71.5567 104.904 71.1733 104.624 70.7C104.344 70.2267 104.204 69.7133 104.204 69.16C104.204 68.5467 104.364 68.0333 104.684 67.62C105.01 67.2 105.47 66.8867 106.064 66.68C106.657 66.4667 107.357 66.36 108.164 66.36C108.69 66.36 109.187 66.4 109.654 66.48C110.127 66.56 110.597 66.6667 111.064 66.8V68.18C110.697 68.06 110.297 67.9667 109.864 67.9C109.43 67.8333 109.024 67.8 108.644 67.8C108.084 67.8 107.624 67.9033 107.264 68.11C106.904 68.3167 106.724 68.6667 106.724 69.16C106.724 69.52 106.87 69.83 107.164 70.09C107.457 70.35 107.924 70.48 108.564 70.48C109.05 70.48 109.464 70.3733 109.804 70.16C110.144 69.9467 110.4 69.68 110.574 69.36C110.754 69.04 110.844 68.72 110.844 68.4H111.404C111.404 69.1 111.274 69.7467 111.014 70.34C110.754 70.9267 110.367 71.3967 109.854 71.75C109.347 72.1033 108.717 72.28 107.964 72.28ZM120.283 72.28C119.349 72.28 118.546 72.1533 117.873 71.9C117.206 71.64 116.693 71.27 116.333 70.79C115.973 70.3033 115.789 69.72 115.783 69.04H117.963C117.983 69.52 118.173 69.87 118.533 70.09C118.893 70.31 119.383 70.42 120.003 70.42C120.343 70.42 120.643 70.37 120.903 70.27C121.169 70.17 121.376 70.0333 121.523 69.86C121.669 69.6867 121.743 69.4933 121.743 69.28C121.743 69.0067 121.643 68.7933 121.443 68.64C121.249 68.48 120.936 68.3333 120.503 68.2L118.383 67.44C117.623 67.1667 117.039 66.8067 116.633 66.36C116.226 65.9133 116.023 65.38 116.023 64.76C116.023 63.94 116.393 63.28 117.133 62.78C117.879 62.2733 118.876 62.02 120.123 62.02C121.363 62.02 122.319 62.2933 122.993 62.84C123.673 63.38 124.023 64.0667 124.043 64.9H121.823C121.789 64.58 121.636 64.3267 121.363 64.14C121.089 63.9533 120.676 63.86 120.123 63.86C119.623 63.86 119.229 63.9633 118.943 64.17C118.663 64.37 118.523 64.6067 118.523 64.88C118.523 65.34 118.916 65.6867 119.703 65.92L122.003 66.78C122.749 67.0333 123.329 67.36 123.743 67.76C124.156 68.16 124.363 68.6667 124.363 69.28C124.363 69.7933 124.189 70.28 123.843 70.74C123.503 71.1933 123.026 71.5633 122.413 71.85C121.799 72.1367 121.089 72.28 120.283 72.28ZM130.648 62.3H133.368L135.688 69.98H135.508L137.828 62.3H140.548L136.928 72H134.268L130.648 62.3ZM144.019 60.52C143.559 60.52 143.199 60.4 142.939 60.16C142.686 59.9133 142.559 59.5733 142.559 59.14C142.559 58.72 142.686 58.3867 142.939 58.14C143.199 57.8867 143.559 57.76 144.019 57.76C144.473 57.76 144.829 57.8867 145.089 58.14C145.349 58.3867 145.479 58.72 145.479 59.14C145.479 59.5733 145.349 59.9133 145.089 60.16C144.829 60.4 144.473 60.52 144.019 60.52ZM142.839 72V62.26H145.199V72H142.839ZM155.862 72V66.32C155.862 65.6 155.688 65.0567 155.342 64.69C154.995 64.3233 154.542 64.14 153.982 64.14C153.508 64.14 153.088 64.27 152.722 64.53C152.362 64.79 152.078 65.1833 151.872 65.71C151.665 66.23 151.562 66.88 151.562 67.66H150.782C150.782 66.4 150.938 65.3533 151.252 64.52C151.565 63.68 152.008 63.0533 152.582 62.64C153.155 62.2267 153.828 62.02 154.602 62.02C155.402 62.02 156.068 62.2 156.602 62.56C157.142 62.9133 157.545 63.4133 157.812 64.06C158.085 64.7067 158.222 65.46 158.222 66.32V72H155.862ZM149.202 72V62.3H151.262L151.562 64.22V72H149.202ZM165.243 72.28C164.429 72.28 163.686 72.0667 163.013 71.64C162.346 71.2067 161.813 70.6033 161.413 69.83C161.019 69.05 160.823 68.14 160.823 67.1C160.823 66.0733 161.013 65.18 161.393 64.42C161.779 63.6533 162.293 63.0633 162.933 62.65C163.579 62.23 164.296 62.02 165.083 62.02C165.803 62.02 166.426 62.1933 166.953 62.54C167.479 62.88 167.883 63.3867 168.163 64.06C168.443 64.7333 168.583 65.56 168.583 66.54H167.843C167.843 66.0333 167.739 65.6033 167.533 65.25C167.326 64.89 167.053 64.6167 166.713 64.43C166.379 64.2367 166.016 64.14 165.623 64.14C165.149 64.14 164.729 64.2633 164.363 64.51C164.003 64.7567 163.719 65.1033 163.513 65.55C163.306 65.99 163.203 66.5067 163.203 67.1C163.203 67.7133 163.306 68.2467 163.513 68.7C163.719 69.1533 164.003 69.5067 164.363 69.76C164.729 70.0133 165.143 70.14 165.603 70.14C165.976 70.14 166.333 70.04 166.673 69.84C167.019 69.6333 167.299 69.3467 167.513 68.98C167.733 68.6133 167.843 68.1867 167.843 67.7H168.583C168.583 68.72 168.429 69.57 168.123 70.25C167.823 70.9233 167.419 71.43 166.913 71.77C166.406 72.11 165.849 72.28 165.243 72.28ZM168.283 72L167.843 69.6V58.28H170.223V72H168.283ZM180.128 72L179.828 69.64V65.74C179.828 65.06 179.688 64.5567 179.408 64.23C179.135 63.9033 178.668 63.74 178.008 63.74C177.628 63.74 177.298 63.7967 177.018 63.91C176.738 64.0233 176.521 64.1867 176.368 64.4C176.221 64.6067 176.148 64.86 176.148 65.16H173.568C173.568 64.4267 173.745 63.83 174.098 63.37C174.451 62.9033 174.958 62.5633 175.618 62.35C176.285 62.13 177.081 62.02 178.008 62.02C178.848 62.02 179.581 62.1567 180.208 62.43C180.835 62.6967 181.321 63.11 181.668 63.67C182.015 64.23 182.188 64.9467 182.188 65.82V72H180.128ZM176.948 72.28C176.115 72.28 175.418 72.1367 174.858 71.85C174.305 71.5567 173.888 71.1733 173.608 70.7C173.328 70.2267 173.188 69.7133 173.188 69.16C173.188 68.5467 173.348 68.0333 173.668 67.62C173.995 67.2 174.455 66.8867 175.048 66.68C175.641 66.4667 176.341 66.36 177.148 66.36C177.675 66.36 178.171 66.4 178.638 66.48C179.111 66.56 179.581 66.6667 180.048 66.8V68.18C179.681 68.06 179.281 67.9667 178.848 67.9C178.415 67.8333 178.008 67.8 177.628 67.8C177.068 67.8 176.608 67.9033 176.248 68.11C175.888 68.3167 175.708 68.6667 175.708 69.16C175.708 69.52 175.855 69.83 176.148 70.09C176.441 70.35 176.908 70.48 177.548 70.48C178.035 70.48 178.448 70.3733 178.788 70.16C179.128 69.9467 179.385 69.68 179.558 69.36C179.738 69.04 179.828 68.72 179.828 68.4H180.388C180.388 69.1 180.258 69.7467 179.998 70.34C179.738 70.9267 179.351 71.3967 178.838 71.75C178.331 72.1033 177.701 72.28 176.948 72.28ZM189.267 72.28C188.334 72.28 187.53 72.1533 186.857 71.9C186.19 71.64 185.677 71.27 185.317 70.79C184.957 70.3033 184.774 69.72 184.767 69.04H186.947C186.967 69.52 187.157 69.87 187.517 70.09C187.877 70.31 188.367 70.42 188.987 70.42C189.327 70.42 189.627 70.37 189.887 70.27C190.154 70.17 190.36 70.0333 190.507 69.86C190.654 69.6867 190.727 69.4933 190.727 69.28C190.727 69.0067 190.627 68.7933 190.427 68.64C190.234 68.48 189.92 68.3333 189.487 68.2L187.367 67.44C186.607 67.1667 186.024 66.8067 185.617 66.36C185.21 65.9133 185.007 65.38 185.007 64.76C185.007 63.94 185.377 63.28 186.117 62.78C186.864 62.2733 187.86 62.02 189.107 62.02C190.347 62.02 191.304 62.2933 191.977 62.84C192.657 63.38 193.007 64.0667 193.027 64.9H190.807C190.774 64.58 190.62 64.3267 190.347 64.14C190.074 63.9533 189.66 63.86 189.107 63.86C188.607 63.86 188.214 63.9633 187.927 64.17C187.647 64.37 187.507 64.6067 187.507 64.88C187.507 65.34 187.9 65.6867 188.687 65.92L190.987 66.78C191.734 67.0333 192.314 67.36 192.727 67.76C193.14 68.16 193.347 68.6667 193.347 69.28C193.347 69.7933 193.174 70.28 192.827 70.74C192.487 71.1933 192.01 71.5633 191.397 71.85C190.784 72.1367 190.074 72.28 189.267 72.28ZM196.314 67.62L196.054 58.74H198.614L198.334 67.62H196.314ZM197.344 72.18C196.857 72.18 196.461 72.0333 196.154 71.74C195.847 71.44 195.694 71.06 195.694 70.6C195.694 70.16 195.847 69.7867 196.154 69.48C196.461 69.1733 196.857 69.02 197.344 69.02C197.817 69.02 198.214 69.1733 198.534 69.48C198.854 69.7867 199.014 70.16 199.014 70.6C199.014 71.06 198.854 71.44 198.534 71.74C198.214 72.0333 197.817 72.18 197.344 72.18Z" fill="#1A181B"/>
<path d="M5.32635 100.168C4.55169 100.168 3.88435 99.9743 3.32435 99.587C2.76435 99.195 2.33268 98.6537 2.02935 97.963C1.72602 97.2677 1.57435 96.4627 1.57435 95.548C1.57435 94.5727 1.73768 93.7513 2.06435 93.084C2.39568 92.4167 2.84369 91.9127 3.40835 91.572C3.97769 91.2267 4.61702 91.054 5.32635 91.054C6.26435 91.054 7.01802 91.2897 7.58735 91.761C8.16135 92.2277 8.55569 92.8367 8.77035 93.588L7.59435 93.826C7.41235 93.28 7.12069 92.846 6.71935 92.524C6.32269 92.1973 5.85835 92.034 5.32635 92.034C4.86435 92.034 4.43735 92.167 4.04535 92.433C3.65802 92.6943 3.34535 93.0863 3.10735 93.609C2.86935 94.1317 2.75035 94.778 2.75035 95.548C2.75035 96.248 2.84368 96.871 3.03035 97.417C3.22168 97.963 3.50635 98.3923 3.88435 98.705C4.26702 99.0177 4.74768 99.174 5.32635 99.174C6.02169 99.174 6.57235 98.9873 6.97835 98.614C7.38902 98.2407 7.59435 97.7507 7.59435 97.144H8.78435C8.78435 97.774 8.63969 98.3153 8.35035 98.768C8.06102 99.216 7.65502 99.5613 7.13235 99.804C6.61435 100.047 6.01235 100.168 5.32635 100.168ZM10.8603 100V93.294H11.9523V100H10.8603ZM11.6163 96.976C11.6163 96.1267 11.698 95.422 11.8613 94.862C12.0246 94.2973 12.2626 93.8773 12.5753 93.602C12.8926 93.322 13.2776 93.182 13.7303 93.182C13.8796 93.182 14.015 93.1937 14.1363 93.217C14.2623 93.2357 14.3883 93.266 14.5143 93.308L14.4443 94.386C14.3136 94.344 14.1713 94.309 14.0173 94.281C13.8633 94.2483 13.7256 94.232 13.6043 94.232C13.2076 94.232 12.888 94.3463 12.6453 94.575C12.4026 94.799 12.2253 95.1163 12.1133 95.527C12.006 95.9377 11.9523 96.4207 11.9523 96.976H11.6163ZM16.5349 91.726C16.3109 91.726 16.1335 91.663 16.0029 91.537C15.8722 91.4063 15.8069 91.236 15.8069 91.026C15.8069 90.8207 15.8722 90.6573 16.0029 90.536C16.1335 90.4147 16.3109 90.354 16.5349 90.354C16.7589 90.354 16.9362 90.4147 17.0669 90.536C17.1975 90.6573 17.2629 90.8207 17.2629 91.026C17.2629 91.236 17.1975 91.4063 17.0669 91.537C16.9362 91.663 16.7589 91.726 16.5349 91.726ZM15.9889 100V93.294H17.0809V100H15.9889ZM22.4128 100.168C21.8341 100.168 21.3161 100.021 20.8588 99.727C20.4061 99.4283 20.0468 99.0153 19.7808 98.488C19.5195 97.9607 19.3888 97.354 19.3888 96.668C19.3888 95.9353 19.5195 95.3053 19.7808 94.778C20.0421 94.2507 20.3991 93.847 20.8518 93.567C21.3091 93.2823 21.8295 93.14 22.4128 93.14C22.9215 93.14 23.3555 93.2427 23.7148 93.448C24.0741 93.6533 24.3635 93.931 24.5828 94.281C24.8021 94.631 24.9538 95.0277 25.0378 95.471C25.1265 95.9097 25.1521 96.3647 25.1148 96.836H20.2708V96.164H24.3938L24.0718 96.374C24.0858 96.0987 24.0695 95.8233 24.0228 95.548C23.9808 95.2727 23.8991 95.0207 23.7778 94.792C23.6565 94.5587 23.4861 94.372 23.2668 94.232C23.0475 94.092 22.7675 94.022 22.4268 94.022C21.9975 94.022 21.6381 94.1317 21.3488 94.351C21.0595 94.5703 20.8425 94.8597 20.6978 95.219C20.5531 95.5737 20.4808 95.9587 20.4808 96.374V96.822C20.4808 97.2887 20.5508 97.7063 20.6908 98.075C20.8355 98.4437 21.0501 98.7353 21.3348 98.95C21.6195 99.1647 21.9788 99.272 22.4128 99.272C22.8468 99.272 23.2038 99.167 23.4838 98.957C23.7638 98.747 23.9341 98.4367 23.9948 98.026H25.1288C25.0588 98.4693 24.9001 98.852 24.6528 99.174C24.4055 99.4913 24.0905 99.7363 23.7078 99.909C23.3251 100.082 22.8935 100.168 22.4128 100.168ZM33.0105 100.168C32.3618 100.168 31.8205 100.077 31.3865 99.895C30.9525 99.7083 30.6235 99.454 30.3995 99.132C30.1755 98.8053 30.0565 98.432 30.0425 98.012H31.0925C31.1158 98.4367 31.2861 98.7563 31.6035 98.971C31.9255 99.181 32.3618 99.286 32.9125 99.286C33.2018 99.286 33.4678 99.2393 33.7105 99.146C33.9531 99.0527 34.1468 98.9243 34.2915 98.761C34.4361 98.5977 34.5085 98.4133 34.5085 98.208C34.5085 97.9467 34.4128 97.7413 34.2215 97.592C34.0301 97.4427 33.7245 97.312 33.3045 97.2L32.0025 96.78C31.4378 96.6027 31.0038 96.36 30.7005 96.052C30.4018 95.7393 30.2525 95.366 30.2525 94.932C30.2525 94.3907 30.4905 93.9567 30.9665 93.63C31.4425 93.3033 32.0678 93.14 32.8425 93.14C33.6638 93.14 34.3008 93.308 34.7535 93.644C35.2061 93.98 35.4418 94.4 35.4605 94.904H34.3825C34.3405 94.61 34.1911 94.3883 33.9345 94.239C33.6778 94.085 33.3138 94.008 32.8425 94.008C32.3898 94.008 32.0351 94.1107 31.7785 94.316C31.5265 94.5167 31.4005 94.7407 31.4005 94.988C31.4005 95.45 31.7971 95.7907 32.5905 96.01L33.9205 96.458C34.4945 96.6307 34.9331 96.857 35.2365 97.137C35.5445 97.417 35.6985 97.774 35.6985 98.208C35.6985 98.544 35.5888 98.8613 35.3695 99.16C35.1501 99.4587 34.8398 99.7013 34.4385 99.888C34.0371 100.075 33.5611 100.168 33.0105 100.168ZM42.5079 93.294H43.5999V100H42.5079V93.294ZM37.7619 93.294H38.8539V97.466C38.8539 98.026 38.9893 98.4507 39.2599 98.74C39.5353 99.0293 39.9273 99.174 40.4359 99.174C40.8559 99.174 41.2199 99.062 41.5279 98.838C41.8406 98.614 42.0809 98.306 42.2489 97.914C42.4216 97.5173 42.5079 97.0647 42.5079 96.556H42.9139C42.9139 97.3073 42.8043 97.949 42.5849 98.481C42.3703 99.013 42.0646 99.4213 41.6679 99.706C41.2759 99.986 40.8139 100.126 40.2819 100.126C39.7779 100.126 39.3369 100.033 38.9589 99.846C38.5809 99.6593 38.2869 99.377 38.0769 98.999C37.8669 98.6163 37.7619 98.1333 37.7619 97.55V93.294ZM50.5785 100L50.4385 98.53V95.66C50.4385 95.058 50.3102 94.6263 50.0535 94.365C49.7968 94.099 49.4118 93.966 48.8985 93.966C48.6092 93.966 48.3455 94.008 48.1075 94.092C47.8742 94.176 47.6875 94.3067 47.5475 94.484C47.4122 94.6567 47.3445 94.8807 47.3445 95.156H46.1265C46.1265 94.6707 46.2455 94.281 46.4835 93.987C46.7215 93.6883 47.0482 93.4737 47.4635 93.343C47.8835 93.2077 48.3618 93.14 48.8985 93.14C49.4118 93.14 49.8668 93.2263 50.2635 93.399C50.6602 93.5717 50.9705 93.847 51.1945 94.225C51.4185 94.5983 51.5305 95.086 51.5305 95.688V100H50.5785ZM48.2965 100.168C47.7458 100.168 47.2908 100.07 46.9315 99.874C46.5722 99.678 46.3038 99.4237 46.1265 99.111C45.9492 98.7983 45.8605 98.4693 45.8605 98.124C45.8605 97.6713 45.9725 97.3027 46.1965 97.018C46.4252 96.7333 46.7355 96.5257 47.1275 96.395C47.5195 96.2597 47.9605 96.192 48.4505 96.192C48.8005 96.192 49.1505 96.227 49.5005 96.297C49.8552 96.367 50.2005 96.4627 50.5365 96.584V97.27C50.2565 97.158 49.9392 97.0693 49.5845 97.004C49.2345 96.9387 48.9125 96.906 48.6185 96.906C48.1705 96.906 47.7925 96.9993 47.4845 97.186C47.1765 97.368 47.0225 97.6807 47.0225 98.124C47.0225 98.4507 47.1392 98.7307 47.3725 98.964C47.6105 99.1973 47.9885 99.314 48.5065 99.314C48.8705 99.314 49.1972 99.23 49.4865 99.062C49.7805 98.8893 50.0115 98.6747 50.1795 98.418C50.3522 98.1613 50.4385 97.9047 50.4385 97.648H50.7045C50.7045 98.096 50.6065 98.5113 50.4105 98.894C50.2192 99.2767 49.9438 99.5847 49.5845 99.818C49.2252 100.051 48.7958 100.168 48.2965 100.168ZM59.8197 100.168C59.283 100.168 58.7814 100.023 58.3147 99.734C57.8527 99.4447 57.4794 99.0363 57.1947 98.509C56.91 97.9817 56.7677 97.3587 56.7677 96.64C56.7677 95.9027 56.91 95.2727 57.1947 94.75C57.4794 94.2273 57.8527 93.8283 58.3147 93.553C58.7814 93.2777 59.283 93.14 59.8197 93.14C60.1977 93.14 60.536 93.1983 60.8347 93.315C61.138 93.427 61.4017 93.5833 61.6257 93.784C61.8497 93.9847 62.034 94.2133 62.1787 94.47C62.328 94.722 62.4377 94.988 62.5077 95.268L61.3877 95.366C61.271 94.9787 61.075 94.673 60.7997 94.449C60.529 94.2203 60.1977 94.106 59.8057 94.106C59.4744 94.106 59.1617 94.2017 58.8677 94.393C58.5784 94.5797 58.3427 94.862 58.1607 95.24C57.9787 95.6133 57.8877 96.08 57.8877 96.64C57.8877 97.158 57.9694 97.6083 58.1327 97.991C58.3007 98.369 58.5294 98.663 58.8187 98.873C59.108 99.083 59.437 99.188 59.8057 99.188C60.3237 99.188 60.7157 99.062 60.9817 98.81C61.2524 98.5533 61.3877 98.1987 61.3877 97.746H62.5077C62.5077 98.2127 62.398 98.628 62.1787 98.992C61.9594 99.356 61.6467 99.643 61.2407 99.853C60.8394 100.063 60.3657 100.168 59.8197 100.168ZM67.1085 100.168C66.5065 100.168 65.9698 100.035 65.4985 99.769C65.0318 99.503 64.6631 99.1087 64.3925 98.586C64.1218 98.0633 63.9865 97.4193 63.9865 96.654C63.9865 95.884 64.1218 95.24 64.3925 94.722C64.6631 94.1993 65.0318 93.805 65.4985 93.539C65.9698 93.273 66.5065 93.14 67.1085 93.14C67.7058 93.14 68.2378 93.273 68.7045 93.539C69.1758 93.805 69.5445 94.1993 69.8105 94.722C70.0811 95.24 70.2165 95.884 70.2165 96.654C70.2165 97.4193 70.0811 98.0633 69.8105 98.586C69.5445 99.1087 69.1758 99.503 68.7045 99.769C68.2378 100.035 67.7058 100.168 67.1085 100.168ZM67.0805 99.216C67.5145 99.216 67.8831 99.1133 68.1865 98.908C68.4898 98.698 68.7185 98.4017 68.8725 98.019C69.0311 97.6363 69.1105 97.1813 69.1105 96.654C69.1105 95.856 68.9448 95.2283 68.6135 94.771C68.2821 94.309 67.7898 94.078 67.1365 94.078C66.6978 94.078 66.3268 94.183 66.0235 94.393C65.7248 94.5983 65.4961 94.8947 65.3375 95.282C65.1835 95.6647 65.1065 96.122 65.1065 96.654C65.1065 97.4427 65.2721 98.068 65.6035 98.53C65.9395 98.9873 66.4318 99.216 67.0805 99.216ZM77.1027 100V96.066C77.1027 95.4267 76.9487 94.9413 76.6407 94.61C76.3374 94.274 75.922 94.106 75.3947 94.106C74.9934 94.106 74.6457 94.2157 74.3517 94.435C74.0577 94.6543 73.8314 94.9693 73.6727 95.38C73.514 95.786 73.4347 96.2713 73.4347 96.836H73.0147C73.0147 96.0567 73.1174 95.3917 73.3227 94.841C73.528 94.2903 73.8267 93.8703 74.2187 93.581C74.6154 93.287 75.096 93.14 75.6607 93.14C76.188 93.14 76.6384 93.259 77.0117 93.497C77.3897 93.7303 77.679 94.0663 77.8797 94.505C78.0804 94.9437 78.1807 95.464 78.1807 96.066V100H77.1027ZM72.3427 100V93.308H73.2807L73.4347 94.848V100H72.3427ZM82.8499 100.168C82.4859 100.168 82.1593 100.098 81.8699 99.958C81.5806 99.818 81.3519 99.608 81.1839 99.328C81.0159 99.048 80.9319 98.698 80.9319 98.278V91.446H82.0099V98.25C82.0099 98.9407 82.3319 99.286 82.9759 99.286C83.1673 99.286 83.3516 99.265 83.5289 99.223C83.7109 99.181 83.9139 99.118 84.1379 99.034L84.2919 99.818C84.0539 99.9207 83.8159 100.005 83.5779 100.07C83.3446 100.135 83.1019 100.168 82.8499 100.168ZM79.8539 94.064V93.308H84.1239V94.064H79.8539ZM90.1996 100L90.0596 98.53V95.66C90.0596 95.058 89.9313 94.6263 89.6746 94.365C89.4179 94.099 89.0329 93.966 88.5196 93.966C88.2303 93.966 87.9666 94.008 87.7286 94.092C87.4953 94.176 87.3086 94.3067 87.1686 94.484C87.0333 94.6567 86.9656 94.8807 86.9656 95.156H85.7476C85.7476 94.6707 85.8666 94.281 86.1046 93.987C86.3426 93.6883 86.6693 93.4737 87.0846 93.343C87.5046 93.2077 87.9829 93.14 88.5196 93.14C89.0329 93.14 89.4879 93.2263 89.8846 93.399C90.2813 93.5717 90.5916 93.847 90.8156 94.225C91.0396 94.5983 91.1516 95.086 91.1516 95.688V100H90.1996ZM87.9176 100.168C87.3669 100.168 86.9119 100.07 86.5526 99.874C86.1933 99.678 85.9249 99.4237 85.7476 99.111C85.5703 98.7983 85.4816 98.4693 85.4816 98.124C85.4816 97.6713 85.5936 97.3027 85.8176 97.018C86.0463 96.7333 86.3566 96.5257 86.7486 96.395C87.1406 96.2597 87.5816 96.192 88.0716 96.192C88.4216 96.192 88.7716 96.227 89.1216 96.297C89.4763 96.367 89.8216 96.4627 90.1576 96.584V97.27C89.8776 97.158 89.5603 97.0693 89.2056 97.004C88.8556 96.9387 88.5336 96.906 88.2396 96.906C87.7916 96.906 87.4136 96.9993 87.1056 97.186C86.7976 97.368 86.6436 97.6807 86.6436 98.124C86.6436 98.4507 86.7603 98.7307 86.9936 98.964C87.2316 99.1973 87.6096 99.314 88.1276 99.314C88.4916 99.314 88.8183 99.23 89.1076 99.062C89.4016 98.8893 89.6326 98.6747 89.8006 98.418C89.9733 98.1613 90.0596 97.9047 90.0596 97.648H90.3256C90.3256 98.096 90.2276 98.5113 90.0316 98.894C89.8403 99.2767 89.5649 99.5847 89.2056 99.818C88.8463 100.051 88.4169 100.168 87.9176 100.168ZM99.4128 100.168C98.8341 100.168 98.3161 100.021 97.8588 99.727C97.4061 99.4283 97.0468 99.0153 96.7808 98.488C96.5195 97.9607 96.3888 97.354 96.3888 96.668C96.3888 95.9353 96.5195 95.3053 96.7808 94.778C97.0421 94.2507 97.3991 93.847 97.8518 93.567C98.3091 93.2823 98.8295 93.14 99.4128 93.14C99.9215 93.14 100.355 93.2427 100.715 93.448C101.074 93.6533 101.363 93.931 101.583 94.281C101.802 94.631 101.954 95.0277 102.038 95.471C102.126 95.9097 102.152 96.3647 102.115 96.836H97.2708V96.164H101.394L101.072 96.374C101.086 96.0987 101.069 95.8233 101.023 95.548C100.981 95.2727 100.899 95.0207 100.778 94.792C100.656 94.5587 100.486 94.372 100.267 94.232C100.047 94.092 99.7675 94.022 99.4268 94.022C98.9975 94.022 98.6381 94.1317 98.3488 94.351C98.0595 94.5703 97.8425 94.8597 97.6978 95.219C97.5531 95.5737 97.4808 95.9587 97.4808 96.374V96.822C97.4808 97.2887 97.5508 97.7063 97.6908 98.075C97.8355 98.4437 98.0501 98.7353 98.3348 98.95C98.6195 99.1647 98.9788 99.272 99.4128 99.272C99.8468 99.272 100.204 99.167 100.484 98.957C100.764 98.747 100.934 98.4367 100.995 98.026H102.129C102.059 98.4693 101.9 98.852 101.653 99.174C101.405 99.4913 101.09 99.7363 100.708 99.909C100.325 100.082 99.8935 100.168 99.4128 100.168ZM112.152 93.294H113.244V100H112.152V93.294ZM107.406 93.294H108.498V97.466C108.498 98.026 108.634 98.4507 108.904 98.74C109.18 99.0293 109.572 99.174 110.08 99.174C110.5 99.174 110.864 99.062 111.172 98.838C111.485 98.614 111.725 98.306 111.893 97.914C112.066 97.5173 112.152 97.0647 112.152 96.556H112.558C112.558 97.3073 112.449 97.949 112.229 98.481C112.015 99.013 111.709 99.4213 111.312 99.706C110.92 99.986 110.458 100.126 109.926 100.126C109.422 100.126 108.981 100.033 108.603 99.846C108.225 99.6593 107.931 99.377 107.721 98.999C107.511 98.6163 107.406 98.1333 107.406 97.55V93.294ZM118.487 100.168C117.838 100.168 117.297 100.077 116.863 99.895C116.429 99.7083 116.1 99.454 115.876 99.132C115.652 98.8053 115.533 98.432 115.519 98.012H116.569C116.592 98.4367 116.763 98.7563 117.08 98.971C117.402 99.181 117.838 99.286 118.389 99.286C118.678 99.286 118.944 99.2393 119.187 99.146C119.43 99.0527 119.623 98.9243 119.768 98.761C119.913 98.5977 119.985 98.4133 119.985 98.208C119.985 97.9467 119.889 97.7413 119.698 97.592C119.507 97.4427 119.201 97.312 118.781 97.2L117.479 96.78C116.914 96.6027 116.48 96.36 116.177 96.052C115.878 95.7393 115.729 95.366 115.729 94.932C115.729 94.3907 115.967 93.9567 116.443 93.63C116.919 93.3033 117.544 93.14 118.319 93.14C119.14 93.14 119.777 93.308 120.23 93.644C120.683 93.98 120.918 94.4 120.937 94.904H119.859C119.817 94.61 119.668 94.3883 119.411 94.239C119.154 94.085 118.79 94.008 118.319 94.008C117.866 94.008 117.512 94.1107 117.255 94.316C117.003 94.5167 116.877 94.7407 116.877 94.988C116.877 95.45 117.274 95.7907 118.067 96.01L119.397 96.458C119.971 96.6307 120.41 96.857 120.713 97.137C121.021 97.417 121.175 97.774 121.175 98.208C121.175 98.544 121.065 98.8613 120.846 99.16C120.627 99.4587 120.316 99.7013 119.915 99.888C119.514 100.075 119.038 100.168 118.487 100.168ZM125.759 100.168C125.18 100.168 124.662 100.021 124.205 99.727C123.752 99.4283 123.393 99.0153 123.127 98.488C122.865 97.9607 122.735 97.354 122.735 96.668C122.735 95.9353 122.865 95.3053 123.127 94.778C123.388 94.2507 123.745 93.847 124.198 93.567C124.655 93.2823 125.175 93.14 125.759 93.14C126.267 93.14 126.701 93.2427 127.061 93.448C127.42 93.6533 127.709 93.931 127.929 94.281C128.148 94.631 128.3 95.0277 128.384 95.471C128.472 95.9097 128.498 96.3647 128.461 96.836H123.617V96.164H127.74L127.418 96.374C127.432 96.0987 127.415 95.8233 127.369 95.548C127.327 95.2727 127.245 95.0207 127.124 94.792C127.002 94.5587 126.832 94.372 126.613 94.232C126.393 94.092 126.113 94.022 125.773 94.022C125.343 94.022 124.984 94.1317 124.695 94.351C124.405 94.5703 124.188 94.8597 124.044 95.219C123.899 95.5737 123.827 95.9587 123.827 96.374V96.822C123.827 97.2887 123.897 97.7063 124.037 98.075C124.181 98.4437 124.396 98.7353 124.681 98.95C124.965 99.1647 125.325 99.272 125.759 99.272C126.193 99.272 126.55 99.167 126.83 98.957C127.11 98.747 127.28 98.4367 127.341 98.026H128.475C128.405 98.4693 128.246 98.852 127.999 99.174C127.751 99.4913 127.436 99.7363 127.054 99.909C126.671 100.082 126.239 100.168 125.759 100.168ZM136.37 100.168C135.768 100.168 135.232 100.035 134.76 99.769C134.294 99.503 133.925 99.1087 133.654 98.586C133.384 98.0633 133.248 97.4193 133.248 96.654C133.248 95.884 133.384 95.24 133.654 94.722C133.925 94.1993 134.294 93.805 134.76 93.539C135.232 93.273 135.768 93.14 136.37 93.14C136.968 93.14 137.5 93.273 137.966 93.539C138.438 93.805 138.806 94.1993 139.072 94.722C139.343 95.24 139.478 95.884 139.478 96.654C139.478 97.4193 139.343 98.0633 139.072 98.586C138.806 99.1087 138.438 99.503 137.966 99.769C137.5 100.035 136.968 100.168 136.37 100.168ZM136.342 99.216C136.776 99.216 137.145 99.1133 137.448 98.908C137.752 98.698 137.98 98.4017 138.134 98.019C138.293 97.6363 138.372 97.1813 138.372 96.654C138.372 95.856 138.207 95.2283 137.875 94.771C137.544 94.309 137.052 94.078 136.398 94.078C135.96 94.078 135.589 94.183 135.285 94.393C134.987 94.5983 134.758 94.8947 134.599 95.282C134.445 95.6647 134.368 96.122 134.368 96.654C134.368 97.4427 134.534 98.068 134.865 98.53C135.201 98.9873 135.694 99.216 136.342 99.216ZM147.251 100.168C146.672 100.168 146.154 100.021 145.697 99.727C145.244 99.4283 144.885 99.0153 144.619 98.488C144.357 97.9607 144.227 97.354 144.227 96.668C144.227 95.9353 144.357 95.3053 144.619 94.778C144.88 94.2507 145.237 93.847 145.69 93.567C146.147 93.2823 146.667 93.14 147.251 93.14C147.759 93.14 148.193 93.2427 148.553 93.448C148.912 93.6533 149.201 93.931 149.421 94.281C149.64 94.631 149.792 95.0277 149.876 95.471C149.964 95.9097 149.99 96.3647 149.953 96.836H145.109V96.164H149.232L148.91 96.374C148.924 96.0987 148.907 95.8233 148.861 95.548C148.819 95.2727 148.737 95.0207 148.616 94.792C148.494 94.5587 148.324 94.372 148.105 94.232C147.885 94.092 147.605 94.022 147.265 94.022C146.835 94.022 146.476 94.1317 146.187 94.351C145.897 94.5703 145.68 94.8597 145.536 95.219C145.391 95.5737 145.319 95.9587 145.319 96.374V96.822C145.319 97.2887 145.389 97.7063 145.529 98.075C145.673 98.4437 145.888 98.7353 146.173 98.95C146.457 99.1647 146.817 99.272 147.251 99.272C147.685 99.272 148.042 99.167 148.322 98.957C148.602 98.747 148.772 98.4367 148.833 98.026H149.967C149.897 98.4693 149.738 98.852 149.491 99.174C149.243 99.4913 148.928 99.7363 148.546 99.909C148.163 100.082 147.731 100.168 147.251 100.168ZM154.526 100.168C153.877 100.168 153.336 100.077 152.902 99.895C152.468 99.7083 152.139 99.454 151.915 99.132C151.691 98.8053 151.572 98.432 151.558 98.012H152.608C152.631 98.4367 152.802 98.7563 153.119 98.971C153.441 99.181 153.877 99.286 154.428 99.286C154.717 99.286 154.983 99.2393 155.226 99.146C155.469 99.0527 155.662 98.9243 155.807 98.761C155.952 98.5977 156.024 98.4133 156.024 98.208C156.024 97.9467 155.928 97.7413 155.737 97.592C155.546 97.4427 155.24 97.312 154.82 97.2L153.518 96.78C152.953 96.6027 152.519 96.36 152.216 96.052C151.917 95.7393 151.768 95.366 151.768 94.932C151.768 94.3907 152.006 93.9567 152.482 93.63C152.958 93.3033 153.583 93.14 154.358 93.14C155.179 93.14 155.816 93.308 156.269 93.644C156.722 93.98 156.957 94.4 156.976 94.904H155.898C155.856 94.61 155.707 94.3883 155.45 94.239C155.193 94.085 154.829 94.008 154.358 94.008C153.905 94.008 153.551 94.1107 153.294 94.316C153.042 94.5167 152.916 94.7407 152.916 94.988C152.916 95.45 153.313 95.7907 154.106 96.01L155.436 96.458C156.01 96.6307 156.449 96.857 156.752 97.137C157.06 97.417 157.214 97.774 157.214 98.208C157.214 98.544 157.104 98.8613 156.885 99.16C156.666 99.4587 156.355 99.7013 155.954 99.888C155.553 100.075 155.077 100.168 154.526 100.168ZM162.512 100.168C162.022 100.168 161.595 100.056 161.231 99.832C160.871 99.608 160.594 99.2813 160.398 98.852C160.202 98.418 160.104 97.8907 160.104 97.27H160.566C160.566 97.6853 160.652 98.0353 160.825 98.32C160.997 98.6047 161.221 98.8217 161.497 98.971C161.777 99.1157 162.073 99.188 162.386 99.188C162.722 99.188 163.044 99.0923 163.352 98.901C163.66 98.705 163.912 98.418 164.108 98.04C164.304 97.662 164.402 97.1953 164.402 96.64C164.402 96.108 164.311 95.653 164.129 95.275C163.951 94.897 163.711 94.6077 163.408 94.407C163.104 94.2063 162.768 94.106 162.4 94.106C162.082 94.106 161.784 94.183 161.504 94.337C161.224 94.491 160.997 94.7173 160.825 95.016C160.652 95.31 160.566 95.674 160.566 96.108H160.104C160.104 95.4593 160.211 94.9157 160.426 94.477C160.64 94.0337 160.932 93.7 161.301 93.476C161.669 93.252 162.082 93.14 162.54 93.14C163.062 93.14 163.55 93.28 164.003 93.56C164.455 93.84 164.822 94.2413 165.102 94.764C165.382 95.2867 165.522 95.912 165.522 96.64C165.522 97.3773 165.379 98.0097 165.095 98.537C164.815 99.0643 164.446 99.468 163.989 99.748C163.531 100.028 163.039 100.168 162.512 100.168ZM159.474 103.29V93.308H160.384L160.566 94.876V103.29H159.474ZM171.807 100L171.667 98.53V95.66C171.667 95.058 171.539 94.6263 171.282 94.365C171.025 94.099 170.64 93.966 170.127 93.966C169.838 93.966 169.574 94.008 169.336 94.092C169.103 94.176 168.916 94.3067 168.776 94.484C168.641 94.6567 168.573 94.8807 168.573 95.156H167.355C167.355 94.6707 167.474 94.281 167.712 93.987C167.95 93.6883 168.277 93.4737 168.692 93.343C169.112 93.2077 169.59 93.14 170.127 93.14C170.64 93.14 171.095 93.2263 171.492 93.399C171.889 93.5717 172.199 93.847 172.423 94.225C172.647 94.5983 172.759 95.086 172.759 95.688V100H171.807ZM169.525 100.168C168.974 100.168 168.519 100.07 168.16 99.874C167.801 99.678 167.532 99.4237 167.355 99.111C167.178 98.7983 167.089 98.4693 167.089 98.124C167.089 97.6713 167.201 97.3027 167.425 97.018C167.654 96.7333 167.964 96.5257 168.356 96.395C168.748 96.2597 169.189 96.192 169.679 96.192C170.029 96.192 170.379 96.227 170.729 96.297C171.084 96.367 171.429 96.4627 171.765 96.584V97.27C171.485 97.158 171.168 97.0693 170.813 97.004C170.463 96.9387 170.141 96.906 169.847 96.906C169.399 96.906 169.021 96.9993 168.713 97.186C168.405 97.368 168.251 97.6807 168.251 98.124C168.251 98.4507 168.368 98.7307 168.601 98.964C168.839 99.1973 169.217 99.314 169.735 99.314C170.099 99.314 170.426 99.23 170.715 99.062C171.009 98.8893 171.24 98.6747 171.408 98.418C171.581 98.1613 171.667 97.9047 171.667 97.648H171.933C171.933 98.096 171.835 98.5113 171.639 98.894C171.448 99.2767 171.172 99.5847 170.813 99.818C170.454 100.051 170.024 100.168 169.525 100.168ZM177.726 100.168C177.189 100.168 176.688 100.023 176.221 99.734C175.759 99.4447 175.386 99.0363 175.101 98.509C174.816 97.9817 174.674 97.3587 174.674 96.64C174.674 95.9027 174.816 95.2727 175.101 94.75C175.386 94.2273 175.759 93.8283 176.221 93.553C176.688 93.2777 177.189 93.14 177.726 93.14C178.104 93.14 178.442 93.1983 178.741 93.315C179.044 93.427 179.308 93.5833 179.532 93.784C179.756 93.9847 179.94 94.2133 180.085 94.47C180.234 94.722 180.344 94.988 180.414 95.268L179.294 95.366C179.177 94.9787 178.981 94.673 178.706 94.449C178.435 94.2203 178.104 94.106 177.712 94.106C177.381 94.106 177.068 94.2017 176.774 94.393C176.485 94.5797 176.249 94.862 176.067 95.24C175.885 95.6133 175.794 96.08 175.794 96.64C175.794 97.158 175.876 97.6083 176.039 97.991C176.207 98.369 176.436 98.663 176.725 98.873C177.014 99.083 177.343 99.188 177.712 99.188C178.23 99.188 178.622 99.062 178.888 98.81C179.159 98.5533 179.294 98.1987 179.294 97.746H180.414C180.414 98.2127 180.304 98.628 180.085 98.992C179.866 99.356 179.553 99.643 179.147 99.853C178.746 100.063 178.272 100.168 177.726 100.168ZM176.347 102.485L176.536 102.023C176.881 102.205 177.192 102.308 177.467 102.331C177.742 102.359 177.962 102.326 178.125 102.233C178.293 102.14 178.384 102.011 178.398 101.848C178.412 101.685 178.349 101.542 178.209 101.421C178.074 101.3 177.899 101.197 177.684 101.113C177.469 101.029 177.248 100.961 177.019 100.91L177.516 99.601L178.139 99.657L177.67 100.882L177.418 100.483C177.838 100.576 178.19 100.691 178.475 100.826C178.76 100.961 178.972 101.118 179.112 101.295C179.252 101.472 179.313 101.673 179.294 101.897C179.275 102.163 179.161 102.375 178.951 102.534C178.746 102.697 178.489 102.802 178.181 102.849C177.873 102.9 177.556 102.896 177.229 102.835C176.902 102.774 176.608 102.658 176.347 102.485ZM185.015 100.168C184.413 100.168 183.876 100.035 183.405 99.769C182.938 99.503 182.569 99.1087 182.299 98.586C182.028 98.0633 181.893 97.4193 181.893 96.654C181.893 95.884 182.028 95.24 182.299 94.722C182.569 94.1993 182.938 93.805 183.405 93.539C183.876 93.273 184.413 93.14 185.015 93.14C185.612 93.14 186.144 93.273 186.611 93.539C187.082 93.805 187.451 94.1993 187.717 94.722C187.987 95.24 188.123 95.884 188.123 96.654C188.123 97.4193 187.987 98.0633 187.717 98.586C187.451 99.1087 187.082 99.503 186.611 99.769C186.144 100.035 185.612 100.168 185.015 100.168ZM184.987 99.216C185.421 99.216 185.789 99.1133 186.093 98.908C186.396 98.698 186.625 98.4017 186.779 98.019C186.937 97.6363 187.017 97.1813 187.017 96.654C187.017 95.856 186.851 95.2283 186.52 94.771C186.188 94.309 185.696 94.078 185.043 94.078C184.604 94.078 184.233 94.183 183.93 94.393C183.631 94.5983 183.402 94.8947 183.244 95.282C183.09 95.6647 183.013 96.122 183.013 96.654C183.013 97.4427 183.178 98.068 183.51 98.53C183.846 98.9873 184.338 99.216 184.987 99.216ZM196.609 100.168C196.119 100.168 195.692 100.056 195.328 99.832C194.969 99.608 194.691 99.2813 194.495 98.852C194.299 98.418 194.201 97.8907 194.201 97.27H194.663C194.663 97.6853 194.75 98.0353 194.922 98.32C195.095 98.6047 195.319 98.8217 195.594 98.971C195.874 99.1157 196.171 99.188 196.483 99.188C196.819 99.188 197.141 99.0923 197.449 98.901C197.757 98.705 198.009 98.418 198.205 98.04C198.401 97.662 198.499 97.1953 198.499 96.64C198.499 96.108 198.408 95.653 198.226 95.275C198.049 94.897 197.809 94.6077 197.505 94.407C197.202 94.2063 196.866 94.106 196.497 94.106C196.18 94.106 195.881 94.183 195.601 94.337C195.321 94.491 195.095 94.7173 194.922 95.016C194.75 95.31 194.663 95.674 194.663 96.108H194.201C194.201 95.4593 194.309 94.9157 194.523 94.477C194.738 94.0337 195.03 93.7 195.398 93.476C195.767 93.252 196.18 93.14 196.637 93.14C197.16 93.14 197.648 93.28 198.1 93.56C198.553 93.84 198.919 94.2413 199.199 94.764C199.479 95.2867 199.619 95.912 199.619 96.64C199.619 97.3773 199.477 98.0097 199.192 98.537C198.912 99.0643 198.544 99.468 198.086 99.748C197.629 100.028 197.137 100.168 196.609 100.168ZM193.571 103.29V93.308H194.481L194.663 94.876V103.29H193.571ZM205.905 100L205.765 98.53V95.66C205.765 95.058 205.636 94.6263 205.38 94.365C205.123 94.099 204.738 93.966 204.225 93.966C203.935 93.966 203.672 94.008 203.434 94.092C203.2 94.176 203.014 94.3067 202.874 94.484C202.738 94.6567 202.671 94.8807 202.671 95.156H201.453C201.453 94.6707 201.572 94.281 201.81 93.987C202.048 93.6883 202.374 93.4737 202.79 93.343C203.21 93.2077 203.688 93.14 204.225 93.14C204.738 93.14 205.193 93.2263 205.59 93.399C205.986 93.5717 206.297 93.847 206.521 94.225C206.745 94.5983 206.857 95.086 206.857 95.688V100H205.905ZM203.623 100.168C203.072 100.168 202.617 100.07 202.258 99.874C201.898 99.678 201.63 99.4237 201.453 99.111C201.275 98.7983 201.187 98.4693 201.187 98.124C201.187 97.6713 201.299 97.3027 201.523 97.018C201.751 96.7333 202.062 96.5257 202.454 96.395C202.846 96.2597 203.287 96.192 203.777 96.192C204.127 96.192 204.477 96.227 204.827 96.297C205.181 96.367 205.527 96.4627 205.863 96.584V97.27C205.583 97.158 205.265 97.0693 204.911 97.004C204.561 96.9387 204.239 96.906 203.945 96.906C203.497 96.906 203.119 96.9993 202.811 97.186C202.503 97.368 202.349 97.6807 202.349 98.124C202.349 98.4507 202.465 98.7307 202.699 98.964C202.937 99.1973 203.315 99.314 203.833 99.314C204.197 99.314 204.523 99.23 204.813 99.062C205.107 98.8893 205.338 98.6747 205.506 98.418C205.678 98.1613 205.765 97.9047 205.765 97.648H206.031C206.031 98.096 205.933 98.5113 205.737 98.894C205.545 99.2767 205.27 99.5847 204.911 99.818C204.551 100.051 204.122 100.168 203.623 100.168ZM209.472 100V93.294H210.564V100H209.472ZM210.228 96.976C210.228 96.1267 210.309 95.422 210.473 94.862C210.636 94.2973 210.874 93.8773 211.187 93.602C211.504 93.322 211.889 93.182 212.342 93.182C212.491 93.182 212.626 93.1937 212.748 93.217C212.874 93.2357 213 93.266 213.126 93.308L213.056 94.386C212.925 94.344 212.783 94.309 212.629 94.281C212.475 94.2483 212.337 94.232 212.216 94.232C211.819 94.232 211.499 94.3463 211.257 94.575C211.014 94.799 210.837 95.1163 210.725 95.527C210.617 95.9377 210.564 96.4207 210.564 96.976H210.228ZM218.674 100L218.534 98.53V95.66C218.534 95.058 218.406 94.6263 218.149 94.365C217.893 94.099 217.508 93.966 216.994 93.966C216.705 93.966 216.441 94.008 216.203 94.092C215.97 94.176 215.783 94.3067 215.643 94.484C215.508 94.6567 215.44 94.8807 215.44 95.156H214.222C214.222 94.6707 214.341 94.281 214.579 93.987C214.817 93.6883 215.144 93.4737 215.559 93.343C215.979 93.2077 216.458 93.14 216.994 93.14C217.508 93.14 217.963 93.2263 218.359 93.399C218.756 93.5717 219.066 93.847 219.29 94.225C219.514 94.5983 219.626 95.086 219.626 95.688V100H218.674ZM216.392 100.168C215.842 100.168 215.387 100.07 215.027 99.874C214.668 99.678 214.4 99.4237 214.222 99.111C214.045 98.7983 213.956 98.4693 213.956 98.124C213.956 97.6713 214.068 97.3027 214.292 97.018C214.521 96.7333 214.831 96.5257 215.223 96.395C215.615 96.2597 216.056 96.192 216.546 96.192C216.896 96.192 217.246 96.227 217.596 96.297C217.951 96.367 218.296 96.4627 218.632 96.584V97.27C218.352 97.158 218.035 97.0693 217.68 97.004C217.33 96.9387 217.008 96.906 216.714 96.906C216.266 96.906 215.888 96.9993 215.58 97.186C215.272 97.368 215.118 97.6807 215.118 98.124C215.118 98.4507 215.235 98.7307 215.468 98.964C215.706 99.1973 216.084 99.314 216.602 99.314C216.966 99.314 217.293 99.23 217.582 99.062C217.876 98.8893 218.107 98.6747 218.275 98.418C218.448 98.1613 218.534 97.9047 218.534 97.648H218.8C218.8 98.096 218.702 98.5113 218.506 98.894C218.315 99.2767 218.04 99.5847 217.68 99.818C217.321 100.051 216.892 100.168 216.392 100.168ZM227.915 100.168C227.379 100.168 226.877 100.023 226.41 99.734C225.948 99.4447 225.575 99.0363 225.29 98.509C225.006 97.9817 224.863 97.3587 224.863 96.64C224.863 95.9027 225.006 95.2727 225.29 94.75C225.575 94.2273 225.948 93.8283 226.41 93.553C226.877 93.2777 227.379 93.14 227.915 93.14C228.293 93.14 228.632 93.1983 228.93 93.315C229.234 93.427 229.497 93.5833 229.721 93.784C229.945 93.9847 230.13 94.2133 230.274 94.47C230.424 94.722 230.533 94.988 230.603 95.268L229.483 95.366C229.367 94.9787 229.171 94.673 228.895 94.449C228.625 94.2203 228.293 94.106 227.901 94.106C227.57 94.106 227.257 94.2017 226.963 94.393C226.674 94.5797 226.438 94.862 226.256 95.24C226.074 95.6133 225.983 96.08 225.983 96.64C225.983 97.158 226.065 97.6083 226.228 97.991C226.396 98.369 226.625 98.663 226.914 98.873C227.204 99.083 227.533 99.188 227.901 99.188C228.419 99.188 228.811 99.062 229.077 98.81C229.348 98.5533 229.483 98.1987 229.483 97.746H230.603C230.603 98.2127 230.494 98.628 230.274 98.992C230.055 99.356 229.742 99.643 229.336 99.853C228.935 100.063 228.461 100.168 227.915 100.168ZM235.204 100.168C234.602 100.168 234.065 100.035 233.594 99.769C233.127 99.503 232.759 99.1087 232.488 98.586C232.217 98.0633 232.082 97.4193 232.082 96.654C232.082 95.884 232.217 95.24 232.488 94.722C232.759 94.1993 233.127 93.805 233.594 93.539C234.065 93.273 234.602 93.14 235.204 93.14C235.801 93.14 236.333 93.273 236.8 93.539C237.271 93.805 237.64 94.1993 237.906 94.722C238.177 95.24 238.312 95.884 238.312 96.654C238.312 97.4193 238.177 98.0633 237.906 98.586C237.64 99.1087 237.271 99.503 236.8 99.769C236.333 100.035 235.801 100.168 235.204 100.168ZM235.176 99.216C235.61 99.216 235.979 99.1133 236.282 98.908C236.585 98.698 236.814 98.4017 236.968 98.019C237.127 97.6363 237.206 97.1813 237.206 96.654C237.206 95.856 237.04 95.2283 236.709 94.771C236.378 94.309 235.885 94.078 235.232 94.078C234.793 94.078 234.422 94.183 234.119 94.393C233.82 94.5983 233.592 94.8947 233.433 95.282C233.279 95.6647 233.202 96.122 233.202 96.654C233.202 97.4427 233.368 98.068 233.699 98.53C234.035 98.9873 234.527 99.216 235.176 99.216ZM249.846 100V96.066C249.846 95.4267 249.692 94.9413 249.384 94.61C249.081 94.274 248.67 94.106 248.152 94.106C247.546 94.106 247.081 94.3417 246.759 94.813C246.437 95.2797 246.276 95.926 246.276 96.752H245.772C245.772 96.15 245.831 95.6227 245.947 95.17C246.069 94.7173 246.244 94.3417 246.472 94.043C246.701 93.7397 246.979 93.5133 247.305 93.364C247.632 93.2147 248.003 93.14 248.418 93.14C248.946 93.14 249.396 93.259 249.769 93.497C250.147 93.7303 250.437 94.0663 250.637 94.505C250.838 94.9437 250.938 95.464 250.938 96.066V100H249.846ZM240.438 100V93.308H241.376L241.502 94.652C241.712 94.1667 242.006 93.7933 242.384 93.532C242.767 93.2707 243.224 93.14 243.756 93.14C244.284 93.14 244.734 93.259 245.107 93.497C245.485 93.7303 245.775 94.0663 245.975 94.505C246.176 94.9437 246.276 95.464 246.276 96.066V100H245.198V96.066C245.198 95.4267 245.044 94.9413 244.736 94.61C244.433 94.274 244.018 94.106 243.49 94.106C243.089 94.106 242.741 94.2157 242.447 94.435C242.153 94.6543 241.927 94.9693 241.768 95.38C241.61 95.786 241.53 96.2713 241.53 96.836V100H240.438ZM256.574 100.168C256.084 100.168 255.657 100.056 255.293 99.832C254.934 99.608 254.656 99.2813 254.46 98.852C254.264 98.418 254.166 97.8907 254.166 97.27H254.628C254.628 97.6853 254.714 98.0353 254.887 98.32C255.06 98.6047 255.284 98.8217 255.559 98.971C255.839 99.1157 256.135 99.188 256.448 99.188C256.784 99.188 257.106 99.0923 257.414 98.901C257.722 98.705 257.974 98.418 258.17 98.04C258.366 97.662 258.464 97.1953 258.464 96.64C258.464 96.108 258.373 95.653 258.191 95.275C258.014 94.897 257.773 94.6077 257.47 94.407C257.167 94.2063 256.831 94.106 256.462 94.106C256.145 94.106 255.846 94.183 255.566 94.337C255.286 94.491 255.06 94.7173 254.887 95.016C254.714 95.31 254.628 95.674 254.628 96.108H254.166C254.166 95.4593 254.273 94.9157 254.488 94.477C254.703 94.0337 254.994 93.7 255.363 93.476C255.732 93.252 256.145 93.14 256.602 93.14C257.125 93.14 257.612 93.28 258.065 93.56C258.518 93.84 258.884 94.2413 259.164 94.764C259.444 95.2867 259.584 95.912 259.584 96.64C259.584 97.3773 259.442 98.0097 259.157 98.537C258.877 99.0643 258.508 99.468 258.051 99.748C257.594 100.028 257.101 100.168 256.574 100.168ZM253.536 103.29V93.308H254.446L254.628 94.876V103.29H253.536ZM261.726 100V93.294H262.818V100H261.726ZM262.482 96.976C262.482 96.1267 262.563 95.422 262.727 94.862C262.89 94.2973 263.128 93.8773 263.441 93.602C263.758 93.322 264.143 93.182 264.596 93.182C264.745 93.182 264.88 93.1937 265.002 93.217C265.128 93.2357 265.254 93.266 265.38 93.308L265.31 94.386C265.179 94.344 265.037 94.309 264.883 94.281C264.729 94.2483 264.591 94.232 264.47 94.232C264.073 94.232 263.753 94.3463 263.511 94.575C263.268 94.799 263.091 95.1163 262.979 95.527C262.871 95.9377 262.818 96.4207 262.818 96.976H262.482ZM270.928 100L270.788 98.53V95.66C270.788 95.058 270.66 94.6263 270.403 94.365C270.146 94.099 269.761 93.966 269.248 93.966C268.959 93.966 268.695 94.008 268.457 94.092C268.224 94.176 268.037 94.3067 267.897 94.484C267.762 94.6567 267.694 94.8807 267.694 95.156H266.476C266.476 94.6707 266.595 94.281 266.833 93.987C267.071 93.6883 267.398 93.4737 267.813 93.343C268.233 93.2077 268.711 93.14 269.248 93.14C269.761 93.14 270.216 93.2263 270.613 93.399C271.01 93.5717 271.32 93.847 271.544 94.225C271.768 94.5983 271.88 95.086 271.88 95.688V100H270.928ZM268.646 100.168C268.095 100.168 267.64 100.07 267.281 99.874C266.922 99.678 266.653 99.4237 266.476 99.111C266.299 98.7983 266.21 98.4693 266.21 98.124C266.21 97.6713 266.322 97.3027 266.546 97.018C266.775 96.7333 267.085 96.5257 267.477 96.395C267.869 96.2597 268.31 96.192 268.8 96.192C269.15 96.192 269.5 96.227 269.85 96.297C270.205 96.367 270.55 96.4627 270.886 96.584V97.27C270.606 97.158 270.289 97.0693 269.934 97.004C269.584 96.9387 269.262 96.906 268.968 96.906C268.52 96.906 268.142 96.9993 267.834 97.186C267.526 97.368 267.372 97.6807 267.372 98.124C267.372 98.4507 267.489 98.7307 267.722 98.964C267.96 99.1973 268.338 99.314 268.856 99.314C269.22 99.314 269.547 99.23 269.836 99.062C270.13 98.8893 270.361 98.6747 270.529 98.418C270.702 98.1613 270.788 97.9047 270.788 97.648H271.054C271.054 98.096 270.956 98.5113 270.76 98.894C270.569 99.2767 270.293 99.5847 269.934 99.818C269.575 100.051 269.145 100.168 268.646 100.168ZM274.495 100V93.294H275.587V100H274.495ZM275.251 96.976C275.251 96.1267 275.333 95.422 275.496 94.862C275.659 94.2973 275.897 93.8773 276.21 93.602C276.527 93.322 276.912 93.182 277.365 93.182C277.514 93.182 277.65 93.1937 277.771 93.217C277.897 93.2357 278.023 93.266 278.149 93.308L278.079 94.386C277.948 94.344 277.806 94.309 277.652 94.281C277.498 94.2483 277.36 94.232 277.239 94.232C276.842 94.232 276.523 94.3463 276.28 94.575C276.037 94.799 275.86 95.1163 275.748 95.527C275.641 95.9377 275.587 96.4207 275.587 96.976H275.251ZM20.1306 109.726C19.9066 109.726 19.7293 109.663 19.5986 109.537C19.4679 109.406 19.4026 109.236 19.4026 109.026C19.4026 108.821 19.4679 108.657 19.5986 108.536C19.7293 108.415 19.9066 108.354 20.1306 108.354C20.3546 108.354 20.5319 108.415 20.6626 108.536C20.7933 108.657 20.8586 108.821 20.8586 109.026C20.8586 109.236 20.7933 109.406 20.6626 109.537C20.5319 109.663 20.3546 109.726 20.1306 109.726ZM19.5846 118V111.294H20.6766V118H19.5846ZM25.7425 118.168C25.3785 118.168 25.0518 118.098 24.7625 117.958C24.4732 117.818 24.2445 117.608 24.0765 117.328C23.9085 117.048 23.8245 116.698 23.8245 116.278V109.446H24.9025V116.25C24.9025 116.941 25.2245 117.286 25.8685 117.286C26.0598 117.286 26.2442 117.265 26.4215 117.223C26.6035 117.181 26.8065 117.118 27.0305 117.034L27.1845 117.818C26.9465 117.921 26.7085 118.005 26.4705 118.07C26.2372 118.135 25.9945 118.168 25.7425 118.168ZM22.7465 112.064V111.308H27.0165V112.064H22.7465ZM31.2722 118.168C30.6935 118.168 30.1755 118.021 29.7182 117.727C29.2655 117.428 28.9062 117.015 28.6402 116.488C28.3788 115.961 28.2482 115.354 28.2482 114.668C28.2482 113.935 28.3788 113.305 28.6402 112.778C28.9015 112.251 29.2585 111.847 29.7112 111.567C30.1685 111.282 30.6888 111.14 31.2722 111.14C31.7808 111.14 32.2148 111.243 32.5742 111.448C32.9335 111.653 33.2228 111.931 33.4422 112.281C33.6615 112.631 33.8132 113.028 33.8972 113.471C33.9858 113.91 34.0115 114.365 33.9742 114.836H29.1302V114.164H33.2532L32.9312 114.374C32.9452 114.099 32.9288 113.823 32.8822 113.548C32.8402 113.273 32.7585 113.021 32.6372 112.792C32.5158 112.559 32.3455 112.372 32.1262 112.232C31.9068 112.092 31.6268 112.022 31.2862 112.022C30.8568 112.022 30.4975 112.132 30.2082 112.351C29.9188 112.57 29.7018 112.86 29.5572 113.219C29.4125 113.574 29.3402 113.959 29.3402 114.374V114.822C29.3402 115.289 29.4102 115.706 29.5502 116.075C29.6948 116.444 29.9095 116.735 30.1942 116.95C30.4788 117.165 30.8382 117.272 31.2722 117.272C31.7062 117.272 32.0632 117.167 32.3432 116.957C32.6232 116.747 32.7935 116.437 32.8542 116.026H33.9882C33.9182 116.469 33.7595 116.852 33.5122 117.174C33.2648 117.491 32.9498 117.736 32.5672 117.909C32.1845 118.082 31.7528 118.168 31.2722 118.168ZM40.8996 118V114.066C40.8996 113.427 40.7456 112.941 40.4376 112.61C40.1343 112.274 39.7189 112.106 39.1916 112.106C38.7903 112.106 38.4426 112.216 38.1486 112.435C37.8546 112.654 37.6283 112.969 37.4696 113.38C37.3109 113.786 37.2316 114.271 37.2316 114.836H36.8116C36.8116 114.057 36.9143 113.392 37.1196 112.841C37.3249 112.29 37.6236 111.87 38.0156 111.581C38.4123 111.287 38.8929 111.14 39.4576 111.14C39.9849 111.14 40.4353 111.259 40.8086 111.497C41.1866 111.73 41.4759 112.066 41.6766 112.505C41.8773 112.944 41.9776 113.464 41.9776 114.066V118H40.8996ZM36.1396 118V111.308H37.0776L37.2316 112.848V118H36.1396ZM46.9968 118.168C46.3481 118.168 45.8068 118.077 45.3728 117.895C44.9388 117.708 44.6098 117.454 44.3858 117.132C44.1618 116.805 44.0428 116.432 44.0288 116.012H45.0788C45.1021 116.437 45.2725 116.756 45.5898 116.971C45.9118 117.181 46.3481 117.286 46.8988 117.286C47.1881 117.286 47.4541 117.239 47.6968 117.146C47.9395 117.053 48.1331 116.924 48.2778 116.761C48.4225 116.598 48.4948 116.413 48.4948 116.208C48.4948 115.947 48.3991 115.741 48.2078 115.592C48.0165 115.443 47.7108 115.312 47.2908 115.2L45.9888 114.78C45.4241 114.603 44.9901 114.36 44.6868 114.052C44.3881 113.739 44.2388 113.366 44.2388 112.932C44.2388 112.391 44.4768 111.957 44.9528 111.63C45.4288 111.303 46.0541 111.14 46.8288 111.14C47.6501 111.14 48.2871 111.308 48.7398 111.644C49.1925 111.98 49.4281 112.4 49.4468 112.904H48.3688C48.3268 112.61 48.1775 112.388 47.9208 112.239C47.6641 112.085 47.3001 112.008 46.8288 112.008C46.3761 112.008 46.0215 112.111 45.7648 112.316C45.5128 112.517 45.3868 112.741 45.3868 112.988C45.3868 113.45 45.7835 113.791 46.5768 114.01L47.9068 114.458C48.4808 114.631 48.9195 114.857 49.2228 115.137C49.5308 115.417 49.6848 115.774 49.6848 116.208C49.6848 116.544 49.5751 116.861 49.3558 117.16C49.1365 117.459 48.8261 117.701 48.4248 117.888C48.0235 118.075 47.5475 118.168 46.9968 118.168ZM54.1045 111.308H55.3505L57.4505 117.062H57.2965L59.3965 111.308H60.6425L57.9685 118H56.7785L54.1045 111.308ZM66.4516 118L66.3116 116.53V113.66C66.3116 113.058 66.1832 112.626 65.9266 112.365C65.6699 112.099 65.2849 111.966 64.7716 111.966C64.4822 111.966 64.2186 112.008 63.9806 112.092C63.7472 112.176 63.5606 112.307 63.4206 112.484C63.2852 112.657 63.2176 112.881 63.2176 113.156H61.9996C61.9996 112.671 62.1186 112.281 62.3566 111.987C62.5946 111.688 62.9212 111.474 63.3366 111.343C63.7566 111.208 64.2349 111.14 64.7716 111.14C65.2849 111.14 65.7399 111.226 66.1366 111.399C66.5332 111.572 66.8436 111.847 67.0676 112.225C67.2916 112.598 67.4036 113.086 67.4036 113.688V118H66.4516ZM64.1696 118.168C63.6189 118.168 63.1639 118.07 62.8046 117.874C62.4452 117.678 62.1769 117.424 61.9996 117.111C61.8222 116.798 61.7336 116.469 61.7336 116.124C61.7336 115.671 61.8456 115.303 62.0696 115.018C62.2982 114.733 62.6086 114.526 63.0006 114.395C63.3926 114.26 63.8336 114.192 64.3236 114.192C64.6736 114.192 65.0236 114.227 65.3736 114.297C65.7282 114.367 66.0736 114.463 66.4096 114.584V115.27C66.1296 115.158 65.8122 115.069 65.4576 115.004C65.1076 114.939 64.7856 114.906 64.4916 114.906C64.0436 114.906 63.6656 114.999 63.3576 115.186C63.0496 115.368 62.8956 115.681 62.8956 116.124C62.8956 116.451 63.0122 116.731 63.2456 116.964C63.4836 117.197 63.8616 117.314 64.3796 117.314C64.7436 117.314 65.0702 117.23 65.3596 117.062C65.6536 116.889 65.8846 116.675 66.0526 116.418C66.2252 116.161 66.3116 115.905 66.3116 115.648H66.5776C66.5776 116.096 66.4796 116.511 66.2836 116.894C66.0922 117.277 65.8169 117.585 65.4576 117.818C65.0982 118.051 64.6689 118.168 64.1696 118.168ZM70.0185 118V111.294H71.1105V118H70.0185ZM70.7745 114.976C70.7745 114.127 70.8562 113.422 71.0195 112.862C71.1828 112.297 71.4208 111.877 71.7335 111.602C72.0508 111.322 72.4358 111.182 72.8885 111.182C73.0378 111.182 73.1732 111.194 73.2945 111.217C73.4205 111.236 73.5465 111.266 73.6725 111.308L73.6025 112.386C73.4718 112.344 73.3295 112.309 73.1755 112.281C73.0215 112.248 72.8838 112.232 72.7625 112.232C72.3658 112.232 72.0462 112.346 71.8035 112.575C71.5608 112.799 71.3835 113.116 71.2715 113.527C71.1642 113.938 71.1105 114.421 71.1105 114.976H70.7745ZM75.6931 109.726C75.4691 109.726 75.2918 109.663 75.1611 109.537C75.0304 109.406 74.9651 109.236 74.9651 109.026C74.9651 108.821 75.0304 108.657 75.1611 108.536C75.2918 108.415 75.4691 108.354 75.6931 108.354C75.9171 108.354 76.0944 108.415 76.2251 108.536C76.3558 108.657 76.4211 108.821 76.4211 109.026C76.4211 109.236 76.3558 109.406 76.2251 109.537C76.0944 109.663 75.9171 109.726 75.6931 109.726ZM75.1471 118V111.294H76.2391V118H75.1471ZM83.391 118L83.251 116.53V113.66C83.251 113.058 83.1227 112.626 82.866 112.365C82.6093 112.099 82.2243 111.966 81.711 111.966C81.4217 111.966 81.158 112.008 80.92 112.092C80.6867 112.176 80.5 112.307 80.36 112.484C80.2247 112.657 80.157 112.881 80.157 113.156H78.939C78.939 112.671 79.058 112.281 79.296 111.987C79.534 111.688 79.8607 111.474 80.276 111.343C80.696 111.208 81.1743 111.14 81.711 111.14C82.2243 111.14 82.6793 111.226 83.076 111.399C83.4727 111.572 83.783 111.847 84.007 112.225C84.231 112.598 84.343 113.086 84.343 113.688V118H83.391ZM81.109 118.168C80.5583 118.168 80.1033 118.07 79.744 117.874C79.3847 117.678 79.1163 117.424 78.939 117.111C78.7617 116.798 78.673 116.469 78.673 116.124C78.673 115.671 78.785 115.303 79.009 115.018C79.2377 114.733 79.548 114.526 79.94 114.395C80.332 114.26 80.773 114.192 81.263 114.192C81.613 114.192 81.963 114.227 82.313 114.297C82.6677 114.367 83.013 114.463 83.349 114.584V115.27C83.069 115.158 82.7517 115.069 82.397 115.004C82.047 114.939 81.725 114.906 81.431 114.906C80.983 114.906 80.605 114.999 80.297 115.186C79.989 115.368 79.835 115.681 79.835 116.124C79.835 116.451 79.9517 116.731 80.185 116.964C80.423 117.197 80.801 117.314 81.319 117.314C81.683 117.314 82.0097 117.23 82.299 117.062C82.593 116.889 82.824 116.675 82.992 116.418C83.1647 116.161 83.251 115.905 83.251 115.648H83.517C83.517 116.096 83.419 116.511 83.223 116.894C83.0317 117.277 82.7563 117.585 82.397 117.818C82.0377 118.051 81.6083 118.168 81.109 118.168ZM89.3519 118.168C88.8106 118.168 88.3136 118.023 87.8609 117.734C87.4083 117.44 87.0466 117.029 86.7759 116.502C86.5053 115.97 86.3699 115.345 86.3699 114.626C86.3699 113.912 86.5029 113.294 86.7689 112.771C87.0349 112.248 87.3873 111.847 87.8259 111.567C88.2693 111.282 88.7546 111.14 89.2819 111.14C89.7719 111.14 90.2013 111.259 90.5699 111.497C90.9433 111.735 91.2326 112.078 91.4379 112.526C91.6433 112.974 91.7459 113.515 91.7459 114.15H91.3259C91.3259 113.707 91.2373 113.333 91.0599 113.03C90.8873 112.727 90.6609 112.498 90.3809 112.344C90.1009 112.185 89.7999 112.106 89.4779 112.106C89.1139 112.106 88.7803 112.209 88.4769 112.414C88.1783 112.615 87.9379 112.904 87.7559 113.282C87.5786 113.655 87.4899 114.103 87.4899 114.626C87.4899 115.158 87.5786 115.615 87.7559 115.998C87.9379 116.381 88.1783 116.675 88.4769 116.88C88.7803 117.085 89.1139 117.188 89.4779 117.188C89.7813 117.188 90.0729 117.109 90.3529 116.95C90.6376 116.791 90.8709 116.56 91.0529 116.257C91.2349 115.949 91.3259 115.578 91.3259 115.144H91.7459C91.7459 115.793 91.6386 116.343 91.4239 116.796C91.2139 117.244 90.9269 117.585 90.5629 117.818C90.2036 118.051 89.7999 118.168 89.3519 118.168ZM91.5079 118L91.3259 116.432V108.452H92.4179V118H91.5079ZM97.6788 118.168C97.0768 118.168 96.5401 118.035 96.0688 117.769C95.6021 117.503 95.2334 117.109 94.9628 116.586C94.6921 116.063 94.5568 115.419 94.5568 114.654C94.5568 113.884 94.6921 113.24 94.9628 112.722C95.2334 112.199 95.6021 111.805 96.0688 111.539C96.5401 111.273 97.0768 111.14 97.6788 111.14C98.2761 111.14 98.8081 111.273 99.2748 111.539C99.7461 111.805 100.115 112.199 100.381 112.722C100.651 113.24 100.787 113.884 100.787 114.654C100.787 115.419 100.651 116.063 100.381 116.586C100.115 117.109 99.7461 117.503 99.2748 117.769C98.8081 118.035 98.2761 118.168 97.6788 118.168ZM97.6508 117.216C98.0848 117.216 98.4534 117.113 98.7568 116.908C99.0601 116.698 99.2888 116.402 99.4428 116.019C99.6014 115.636 99.6808 115.181 99.6808 114.654C99.6808 113.856 99.5151 113.228 99.1838 112.771C98.8524 112.309 98.3601 112.078 97.7068 112.078C97.2681 112.078 96.8971 112.183 96.5938 112.393C96.2951 112.598 96.0664 112.895 95.9078 113.282C95.7538 113.665 95.6768 114.122 95.6768 114.654C95.6768 115.443 95.8424 116.068 96.1738 116.53C96.5098 116.987 97.0021 117.216 97.6508 117.216ZM105.321 118.168C104.672 118.168 104.131 118.077 103.697 117.895C103.263 117.708 102.934 117.454 102.71 117.132C102.486 116.805 102.367 116.432 102.353 116.012H103.403C103.426 116.437 103.597 116.756 103.914 116.971C104.236 117.181 104.672 117.286 105.223 117.286C105.512 117.286 105.778 117.239 106.021 117.146C106.264 117.053 106.457 116.924 106.602 116.761C106.747 116.598 106.819 116.413 106.819 116.208C106.819 115.947 106.723 115.741 106.532 115.592C106.341 115.443 106.035 115.312 105.615 115.2L104.313 114.78C103.748 114.603 103.314 114.36 103.011 114.052C102.712 113.739 102.563 113.366 102.563 112.932C102.563 112.391 102.801 111.957 103.277 111.63C103.753 111.303 104.378 111.14 105.153 111.14C105.974 111.14 106.611 111.308 107.064 111.644C107.517 111.98 107.752 112.4 107.771 112.904H106.693C106.651 112.61 106.502 112.388 106.245 112.239C105.988 112.085 105.624 112.008 105.153 112.008C104.7 112.008 104.346 112.111 104.089 112.316C103.837 112.517 103.711 112.741 103.711 112.988C103.711 113.45 104.108 113.791 104.901 114.01L106.231 114.458C106.805 114.631 107.244 114.857 107.547 115.137C107.855 115.417 108.009 115.774 108.009 116.208C108.009 116.544 107.899 116.861 107.68 117.16C107.461 117.459 107.15 117.701 106.749 117.888C106.348 118.075 105.872 118.168 105.321 118.168ZM115.915 118.168C115.336 118.168 114.818 118.021 114.361 117.727C113.908 117.428 113.549 117.015 113.283 116.488C113.021 115.961 112.891 115.354 112.891 114.668C112.891 113.935 113.021 113.305 113.283 112.778C113.544 112.251 113.901 111.847 114.354 111.567C114.811 111.282 115.331 111.14 115.915 111.14C116.423 111.14 116.857 111.243 117.217 111.448C117.576 111.653 117.865 111.931 118.085 112.281C118.304 112.631 118.456 113.028 118.54 113.471C118.628 113.91 118.654 114.365 118.617 114.836H113.773V114.164H117.896L117.574 114.374C117.588 114.099 117.571 113.823 117.525 113.548C117.483 113.273 117.401 113.021 117.28 112.792C117.158 112.559 116.988 112.372 116.769 112.232C116.549 112.092 116.269 112.022 115.929 112.022C115.499 112.022 115.14 112.132 114.851 112.351C114.561 112.57 114.344 112.86 114.2 113.219C114.055 113.574 113.983 113.959 113.983 114.374V114.822C113.983 115.289 114.053 115.706 114.193 116.075C114.337 116.444 114.552 116.735 114.837 116.95C115.121 117.165 115.481 117.272 115.915 117.272C116.349 117.272 116.706 117.167 116.986 116.957C117.266 116.747 117.436 116.437 117.497 116.026H118.631C118.561 116.469 118.402 116.852 118.155 117.174C117.907 117.491 117.592 117.736 117.21 117.909C116.827 118.082 116.395 118.168 115.915 118.168ZM122.942 111.308H124.188L126.288 117.062H126.134L128.234 111.308H129.48L126.806 118H125.616L122.942 111.308ZM133.469 118.168C132.891 118.168 132.373 118.021 131.915 117.727C131.463 117.428 131.103 117.015 130.837 116.488C130.576 115.961 130.445 115.354 130.445 114.668C130.445 113.935 130.576 113.305 130.837 112.778C131.099 112.251 131.456 111.847 131.908 111.567C132.366 111.282 132.886 111.14 133.469 111.14C133.978 111.14 134.412 111.243 134.771 111.448C135.131 111.653 135.42 111.931 135.639 112.281C135.859 112.631 136.01 113.028 136.094 113.471C136.183 113.91 136.209 114.365 136.171 114.836H131.327V114.164H135.45L135.128 114.374C135.142 114.099 135.126 113.823 135.079 113.548C135.037 113.273 134.956 113.021 134.834 112.792C134.713 112.559 134.543 112.372 134.323 112.232C134.104 112.092 133.824 112.022 133.483 112.022C133.054 112.022 132.695 112.132 132.405 112.351C132.116 112.57 131.899 112.86 131.754 113.219C131.61 113.574 131.537 113.959 131.537 114.374V114.822C131.537 115.289 131.607 115.706 131.747 116.075C131.892 116.444 132.107 116.735 132.391 116.95C132.676 117.165 133.035 117.272 133.469 117.272C133.903 117.272 134.26 117.167 134.54 116.957C134.82 116.747 134.991 116.437 135.051 116.026H136.185C136.115 116.469 135.957 116.852 135.709 117.174C135.462 117.491 135.147 117.736 134.764 117.909C134.382 118.082 133.95 118.168 133.469 118.168ZM143.097 118V114.066C143.097 113.427 142.943 112.941 142.635 112.61C142.332 112.274 141.916 112.106 141.389 112.106C140.988 112.106 140.64 112.216 140.346 112.435C140.052 112.654 139.826 112.969 139.667 113.38C139.508 113.786 139.429 114.271 139.429 114.836H139.009C139.009 114.057 139.112 113.392 139.317 112.841C139.522 112.29 139.821 111.87 140.213 111.581C140.61 111.287 141.09 111.14 141.655 111.14C142.182 111.14 142.633 111.259 143.006 111.497C143.384 111.73 143.673 112.066 143.874 112.505C144.075 112.944 144.175 113.464 144.175 114.066V118H143.097ZM138.337 118V111.308H139.275L139.429 112.848V118H138.337ZM149.18 118.168C148.639 118.168 148.142 118.023 147.689 117.734C147.236 117.44 146.875 117.029 146.604 116.502C146.333 115.97 146.198 115.345 146.198 114.626C146.198 113.912 146.331 113.294 146.597 112.771C146.863 112.248 147.215 111.847 147.654 111.567C148.097 111.282 148.583 111.14 149.11 111.14C149.6 111.14 150.029 111.259 150.398 111.497C150.771 111.735 151.061 112.078 151.266 112.526C151.471 112.974 151.574 113.515 151.574 114.15H151.154C151.154 113.707 151.065 113.333 150.888 113.03C150.715 112.727 150.489 112.498 150.209 112.344C149.929 112.185 149.628 112.106 149.306 112.106C148.942 112.106 148.608 112.209 148.305 112.414C148.006 112.615 147.766 112.904 147.584 113.282C147.407 113.655 147.318 114.103 147.318 114.626C147.318 115.158 147.407 115.615 147.584 115.998C147.766 116.381 148.006 116.675 148.305 116.88C148.608 117.085 148.942 117.188 149.306 117.188C149.609 117.188 149.901 117.109 150.181 116.95C150.466 116.791 150.699 116.56 150.881 116.257C151.063 115.949 151.154 115.578 151.154 115.144H151.574C151.574 115.793 151.467 116.343 151.252 116.796C151.042 117.244 150.755 117.585 150.391 117.818C150.032 118.051 149.628 118.168 149.18 118.168ZM151.336 118L151.154 116.432V108.452H152.246V118H151.336ZM157.409 118.168C156.83 118.168 156.312 118.021 155.855 117.727C155.402 117.428 155.043 117.015 154.777 116.488C154.516 115.961 154.385 115.354 154.385 114.668C154.385 113.935 154.516 113.305 154.777 112.778C155.038 112.251 155.395 111.847 155.848 111.567C156.305 111.282 156.826 111.14 157.409 111.14C157.918 111.14 158.352 111.243 158.711 111.448C159.07 111.653 159.36 111.931 159.579 112.281C159.798 112.631 159.95 113.028 160.034 113.471C160.123 113.91 160.148 114.365 160.111 114.836H155.267V114.164H159.39L159.068 114.374C159.082 114.099 159.066 113.823 159.019 113.548C158.977 113.273 158.895 113.021 158.774 112.792C158.653 112.559 158.482 112.372 158.263 112.232C158.044 112.092 157.764 112.022 157.423 112.022C156.994 112.022 156.634 112.132 156.345 112.351C156.056 112.57 155.839 112.86 155.694 113.219C155.549 113.574 155.477 113.959 155.477 114.374V114.822C155.477 115.289 155.547 115.706 155.687 116.075C155.832 116.444 156.046 116.735 156.331 116.95C156.616 117.165 156.975 117.272 157.409 117.272C157.843 117.272 158.2 117.167 158.48 116.957C158.76 116.747 158.93 116.437 158.991 116.026H160.125C160.055 116.469 159.896 116.852 159.649 117.174C159.402 117.491 159.087 117.736 158.704 117.909C158.321 118.082 157.89 118.168 157.409 118.168ZM162.276 118V111.294H163.368V118H162.276ZM163.032 114.976C163.032 114.127 163.114 113.422 163.277 112.862C163.441 112.297 163.679 111.877 163.991 111.602C164.309 111.322 164.694 111.182 165.146 111.182C165.296 111.182 165.431 111.194 165.552 111.217C165.678 111.236 165.804 111.266 165.93 111.308L165.86 112.386C165.73 112.344 165.587 112.309 165.433 112.281C165.279 112.248 165.142 112.232 165.02 112.232C164.624 112.232 164.304 112.346 164.061 112.575C163.819 112.799 163.641 113.116 163.529 113.527C163.422 113.938 163.368 114.421 163.368 114.976H163.032ZM173.065 118.168C172.416 118.168 171.875 118.077 171.441 117.895C171.007 117.708 170.678 117.454 170.454 117.132C170.23 116.805 170.111 116.432 170.097 116.012H171.147C171.17 116.437 171.341 116.756 171.658 116.971C171.98 117.181 172.416 117.286 172.967 117.286C173.256 117.286 173.522 117.239 173.765 117.146C174.008 117.053 174.201 116.924 174.346 116.761C174.491 116.598 174.563 116.413 174.563 116.208C174.563 115.947 174.467 115.741 174.276 115.592C174.085 115.443 173.779 115.312 173.359 115.2L172.057 114.78C171.492 114.603 171.058 114.36 170.755 114.052C170.456 113.739 170.307 113.366 170.307 112.932C170.307 112.391 170.545 111.957 171.021 111.63C171.497 111.303 172.122 111.14 172.897 111.14C173.718 111.14 174.355 111.308 174.808 111.644C175.261 111.98 175.496 112.4 175.515 112.904H174.437C174.395 112.61 174.246 112.388 173.989 112.239C173.732 112.085 173.368 112.008 172.897 112.008C172.444 112.008 172.09 112.111 171.833 112.316C171.581 112.517 171.455 112.741 171.455 112.988C171.455 113.45 171.852 113.791 172.645 114.01L173.975 114.458C174.549 114.631 174.988 114.857 175.291 115.137C175.599 115.417 175.753 115.774 175.753 116.208C175.753 116.544 175.643 116.861 175.424 117.16C175.205 117.459 174.894 117.701 174.493 117.888C174.092 118.075 173.616 118.168 173.065 118.168ZM180.337 118.168C179.758 118.168 179.24 118.021 178.783 117.727C178.33 117.428 177.971 117.015 177.705 116.488C177.443 115.961 177.313 115.354 177.313 114.668C177.313 113.935 177.443 113.305 177.705 112.778C177.966 112.251 178.323 111.847 178.776 111.567C179.233 111.282 179.753 111.14 180.337 111.14C180.845 111.14 181.279 111.243 181.639 111.448C181.998 111.653 182.287 111.931 182.507 112.281C182.726 112.631 182.878 113.028 182.962 113.471C183.05 113.91 183.076 114.365 183.039 114.836H178.195V114.164H182.318L181.996 114.374C182.01 114.099 181.993 113.823 181.947 113.548C181.905 113.273 181.823 113.021 181.702 112.792C181.58 112.559 181.41 112.372 181.191 112.232C180.971 112.092 180.691 112.022 180.351 112.022C179.921 112.022 179.562 112.132 179.273 112.351C178.983 112.57 178.766 112.86 178.622 113.219C178.477 113.574 178.405 113.959 178.405 114.374V114.822C178.405 115.289 178.475 115.706 178.615 116.075C178.759 116.444 178.974 116.735 179.259 116.95C179.543 117.165 179.903 117.272 180.337 117.272C180.771 117.272 181.128 117.167 181.408 116.957C181.688 116.747 181.858 116.437 181.919 116.026H183.053C182.983 116.469 182.824 116.852 182.577 117.174C182.329 117.491 182.014 117.736 181.632 117.909C181.249 118.082 180.817 118.168 180.337 118.168ZM189.754 111.294H190.846V118H189.754V111.294ZM185.008 111.294H186.1V115.466C186.1 116.026 186.235 116.451 186.506 116.74C186.781 117.029 187.173 117.174 187.682 117.174C188.102 117.174 188.466 117.062 188.774 116.838C189.087 116.614 189.327 116.306 189.495 115.914C189.668 115.517 189.754 115.065 189.754 114.556H190.16C190.16 115.307 190.05 115.949 189.831 116.481C189.616 117.013 189.311 117.421 188.914 117.706C188.522 117.986 188.06 118.126 187.528 118.126C187.024 118.126 186.583 118.033 186.205 117.846C185.827 117.659 185.533 117.377 185.323 116.999C185.113 116.616 185.008 116.133 185.008 115.55V111.294ZM196.089 118.168C195.44 118.168 194.899 118.077 194.465 117.895C194.031 117.708 193.702 117.454 193.478 117.132C193.254 116.805 193.135 116.432 193.121 116.012H194.171C194.194 116.437 194.364 116.756 194.682 116.971C195.004 117.181 195.44 117.286 195.991 117.286C196.28 117.286 196.546 117.239 196.789 117.146C197.031 117.053 197.225 116.924 197.37 116.761C197.514 116.598 197.587 116.413 197.587 116.208C197.587 115.947 197.491 115.741 197.3 115.592C197.108 115.443 196.803 115.312 196.383 115.2L195.081 114.78C194.516 114.603 194.082 114.36 193.779 114.052C193.48 113.739 193.331 113.366 193.331 112.932C193.331 112.391 193.569 111.957 194.045 111.63C194.521 111.303 195.146 111.14 195.921 111.14C196.742 111.14 197.379 111.308 197.832 111.644C198.284 111.98 198.52 112.4 198.539 112.904H197.461C197.419 112.61 197.269 112.388 197.013 112.239C196.756 112.085 196.392 112.008 195.921 112.008C195.468 112.008 195.113 112.111 194.857 112.316C194.605 112.517 194.479 112.741 194.479 112.988C194.479 113.45 194.875 113.791 195.669 114.01L196.999 114.458C197.573 114.631 198.011 114.857 198.315 115.137C198.623 115.417 198.777 115.774 198.777 116.208C198.777 116.544 198.667 116.861 198.448 117.16C198.228 117.459 197.918 117.701 197.517 117.888C197.115 118.075 196.639 118.168 196.089 118.168ZM207.396 118.168C206.906 118.168 206.479 118.056 206.115 117.832C205.756 117.608 205.478 117.281 205.282 116.852C205.086 116.418 204.988 115.891 204.988 115.27H205.45C205.45 115.685 205.537 116.035 205.709 116.32C205.882 116.605 206.106 116.822 206.381 116.971C206.661 117.116 206.958 117.188 207.27 117.188C207.606 117.188 207.928 117.092 208.236 116.901C208.544 116.705 208.796 116.418 208.992 116.04C209.188 115.662 209.286 115.195 209.286 114.64C209.286 114.108 209.195 113.653 209.013 113.275C208.836 112.897 208.596 112.608 208.292 112.407C207.989 112.206 207.653 112.106 207.284 112.106C206.967 112.106 206.668 112.183 206.388 112.337C206.108 112.491 205.882 112.717 205.709 113.016C205.537 113.31 205.45 113.674 205.45 114.108H204.988C204.988 113.459 205.096 112.916 205.31 112.477C205.525 112.034 205.817 111.7 206.185 111.476C206.554 111.252 206.967 111.14 207.424 111.14C207.947 111.14 208.435 111.28 208.887 111.56C209.34 111.84 209.706 112.241 209.986 112.764C210.266 113.287 210.406 113.912 210.406 114.64C210.406 115.377 210.264 116.01 209.979 116.537C209.699 117.064 209.331 117.468 208.873 117.748C208.416 118.028 207.924 118.168 207.396 118.168ZM204.358 121.29V111.308H205.268L205.45 112.876V121.29H204.358ZM212.548 118V111.294H213.64V118H212.548ZM213.304 114.976C213.304 114.127 213.385 113.422 213.549 112.862C213.712 112.297 213.95 111.877 214.263 111.602C214.58 111.322 214.965 111.182 215.418 111.182C215.567 111.182 215.702 111.194 215.824 111.217C215.95 111.236 216.076 111.266 216.202 111.308L216.132 112.386C216.001 112.344 215.859 112.309 215.705 112.281C215.551 112.248 215.413 112.232 215.292 112.232C214.895 112.232 214.575 112.346 214.333 112.575C214.09 112.799 213.913 113.116 213.801 113.527C213.693 113.938 213.64 114.421 213.64 114.976H213.304ZM220.028 118.168C219.426 118.168 218.89 118.035 218.418 117.769C217.952 117.503 217.583 117.109 217.312 116.586C217.042 116.063 216.906 115.419 216.906 114.654C216.906 113.884 217.042 113.24 217.312 112.722C217.583 112.199 217.952 111.805 218.418 111.539C218.89 111.273 219.426 111.14 220.028 111.14C220.626 111.14 221.158 111.273 221.624 111.539C222.096 111.805 222.464 112.199 222.73 112.722C223.001 113.24 223.136 113.884 223.136 114.654C223.136 115.419 223.001 116.063 222.73 116.586C222.464 117.109 222.096 117.503 221.624 117.769C221.158 118.035 220.626 118.168 220.028 118.168ZM220 117.216C220.434 117.216 220.803 117.113 221.106 116.908C221.41 116.698 221.638 116.402 221.792 116.019C221.951 115.636 222.03 115.181 222.03 114.654C222.03 113.856 221.865 113.228 221.533 112.771C221.202 112.309 220.71 112.078 220.056 112.078C219.618 112.078 219.247 112.183 218.943 112.393C218.645 112.598 218.416 112.895 218.257 113.282C218.103 113.665 218.026 114.122 218.026 114.654C218.026 115.443 218.192 116.068 218.523 116.53C218.859 116.987 219.352 117.216 220 117.216ZM227.657 118.168C227.115 118.168 226.618 118.023 226.166 117.734C225.713 117.44 225.351 117.029 225.081 116.502C224.81 115.97 224.675 115.345 224.675 114.626C224.675 113.912 224.808 113.294 225.074 112.771C225.34 112.248 225.692 111.847 226.131 111.567C226.574 111.282 227.059 111.14 227.587 111.14C228.077 111.14 228.506 111.259 228.875 111.497C229.248 111.735 229.537 112.078 229.743 112.526C229.948 112.974 230.051 113.515 230.051 114.15H229.631C229.631 113.707 229.542 113.333 229.365 113.03C229.192 112.727 228.966 112.498 228.686 112.344C228.406 112.185 228.105 112.106 227.783 112.106C227.419 112.106 227.085 112.209 226.782 112.414C226.483 112.615 226.243 112.904 226.061 113.282C225.883 113.655 225.795 114.103 225.795 114.626C225.795 115.158 225.883 115.615 226.061 115.998C226.243 116.381 226.483 116.675 226.782 116.88C227.085 117.085 227.419 117.188 227.783 117.188C228.086 117.188 228.378 117.109 228.658 116.95C228.942 116.791 229.176 116.56 229.358 116.257C229.54 115.949 229.631 115.578 229.631 115.144H230.051C230.051 115.793 229.943 116.343 229.729 116.796C229.519 117.244 229.232 117.585 228.868 117.818C228.508 118.051 228.105 118.168 227.657 118.168ZM229.813 118L229.631 116.432V108.452H230.723V118H229.813ZM238.111 111.294H239.203V118H238.111V111.294ZM233.365 111.294H234.457V115.466C234.457 116.026 234.593 116.451 234.863 116.74C235.139 117.029 235.531 117.174 236.039 117.174C236.459 117.174 236.823 117.062 237.131 116.838C237.444 116.614 237.684 116.306 237.852 115.914C238.025 115.517 238.111 115.065 238.111 114.556H238.517C238.517 115.307 238.408 115.949 238.188 116.481C237.974 117.013 237.668 117.421 237.271 117.706C236.879 117.986 236.417 118.126 235.885 118.126C235.381 118.126 234.94 118.033 234.562 117.846C234.184 117.659 233.89 117.377 233.68 116.999C233.47 116.616 233.365 116.133 233.365 115.55V111.294ZM244.096 118.168C243.732 118.168 243.405 118.098 243.116 117.958C242.827 117.818 242.598 117.608 242.43 117.328C242.262 117.048 242.178 116.698 242.178 116.278V109.446H243.256V116.25C243.256 116.941 243.578 117.286 244.222 117.286C244.413 117.286 244.598 117.265 244.775 117.223C244.957 117.181 245.16 117.118 245.384 117.034L245.538 117.818C245.3 117.921 245.062 118.005 244.824 118.07C244.591 118.135 244.348 118.168 244.096 118.168ZM241.1 112.064V111.308H245.37V112.064H241.1ZM249.724 118.168C249.122 118.168 248.585 118.035 248.114 117.769C247.647 117.503 247.278 117.109 247.008 116.586C246.737 116.063 246.602 115.419 246.602 114.654C246.602 113.884 246.737 113.24 247.008 112.722C247.278 112.199 247.647 111.805 248.114 111.539C248.585 111.273 249.122 111.14 249.724 111.14C250.321 111.14 250.853 111.273 251.32 111.539C251.791 111.805 252.16 112.199 252.426 112.722C252.696 113.24 252.832 113.884 252.832 114.654C252.832 115.419 252.696 116.063 252.426 116.586C252.16 117.109 251.791 117.503 251.32 117.769C250.853 118.035 250.321 118.168 249.724 118.168ZM249.696 117.216C250.13 117.216 250.498 117.113 250.802 116.908C251.105 116.698 251.334 116.402 251.488 116.019C251.646 115.636 251.726 115.181 251.726 114.654C251.726 113.856 251.56 113.228 251.229 112.771C250.897 112.309 250.405 112.078 249.752 112.078C249.313 112.078 248.942 112.183 248.639 112.393C248.34 112.598 248.111 112.895 247.953 113.282C247.799 113.665 247.722 114.122 247.722 114.654C247.722 115.443 247.887 116.068 248.219 116.53C248.555 116.987 249.047 117.216 249.696 117.216ZM257.366 118.168C256.717 118.168 256.176 118.077 255.742 117.895C255.308 117.708 254.979 117.454 254.755 117.132C254.531 116.805 254.412 116.432 254.398 116.012H255.448C255.471 116.437 255.642 116.756 255.959 116.971C256.281 117.181 256.717 117.286 257.268 117.286C257.557 117.286 257.823 117.239 258.066 117.146C258.309 117.053 258.502 116.924 258.647 116.761C258.792 116.598 258.864 116.413 258.864 116.208C258.864 115.947 258.768 115.741 258.577 115.592C258.386 115.443 258.08 115.312 257.66 115.2L256.358 114.78C255.793 114.603 255.359 114.36 255.056 114.052C254.757 113.739 254.608 113.366 254.608 112.932C254.608 112.391 254.846 111.957 255.322 111.63C255.798 111.303 256.423 111.14 257.198 111.14C258.019 111.14 258.656 111.308 259.109 111.644C259.562 111.98 259.797 112.4 259.816 112.904H258.738C258.696 112.61 258.547 112.388 258.29 112.239C258.033 112.085 257.669 112.008 257.198 112.008C256.745 112.008 256.391 112.111 256.134 112.316C255.882 112.517 255.756 112.741 255.756 112.988C255.756 113.45 256.153 113.791 256.946 114.01L258.276 114.458C258.85 114.631 259.289 114.857 259.592 115.137C259.9 115.417 260.054 115.774 260.054 116.208C260.054 116.544 259.944 116.861 259.725 117.16C259.506 117.459 259.195 117.701 258.794 117.888C258.393 118.075 257.917 118.168 257.366 118.168Z" fill="#3E3A40"/>
</svg>
