<svg width="18" height="14" viewBox="0 0 18 14" fill="none" xmlns="http://www.w3.org/2000/svg">
<path d="M0.616 12V1.952H4.12C5.26667 1.952 6.13333 2.22667 6.72 2.776C7.312 3.32 7.608 4.03733 7.608 4.928C7.608 5.808 7.312 6.52267 6.72 7.072C6.13333 7.616 5.26667 7.888 4.12 7.888H1.864V12H0.616ZM6.248 12L3.368 7.44H4.728L7.864 12H6.248ZM1.864 7.008H4.024C4.776 7.008 5.34667 6.824 5.736 6.456C6.13067 6.08267 6.328 5.6 6.328 5.008C6.328 4.4 6.13867 3.91733 5.76 3.56C5.38667 3.20267 4.84 3.024 4.12 3.024H1.864V7.008ZM13.9009 12.192C13.3622 12.192 12.8502 12.1253 12.3649 11.992C11.8849 11.8533 11.4582 11.6507 11.0849 11.384C10.7169 11.1173 10.4262 10.784 10.2129 10.384C10.0049 9.984 9.90088 9.52 9.90088 8.992H11.1169C11.1169 9.46667 11.2369 9.856 11.4769 10.16C11.7169 10.4587 12.0502 10.68 12.4769 10.824C12.9035 10.968 13.3942 11.04 13.9489 11.04C14.4875 11.04 14.9355 10.96 15.2929 10.8C15.6555 10.64 15.9275 10.4293 16.1089 10.168C16.2902 9.90667 16.3809 9.62667 16.3809 9.328C16.3809 8.928 16.2529 8.592 15.9969 8.32C15.7462 8.04267 15.3835 7.82933 14.9089 7.68L13.8849 7.328V6.208L15.4529 6.72C16.1835 6.96 16.7542 7.288 17.1649 7.704C17.5809 8.12 17.7889 8.672 17.7889 9.36C17.7889 9.82933 17.6475 10.28 17.3649 10.712C17.0822 11.144 16.6529 11.4987 16.0769 11.776C15.5009 12.0533 14.7755 12.192 13.9009 12.192ZM13.3569 13.456V0.608H14.3329V13.456H13.3569ZM13.6609 7.328L12.8449 7.056C11.9649 6.768 11.2955 6.42933 10.8369 6.04C10.3835 5.65067 10.1569 5.10933 10.1569 4.416C10.1569 3.63733 10.4689 3.00267 11.0929 2.512C11.7222 2.02133 12.6315 1.776 13.8209 1.776C14.9035 1.776 15.7382 2.016 16.3249 2.496C16.9169 2.97067 17.2769 3.6 17.4049 4.384H16.1569C16.0769 3.92 15.8369 3.552 15.4369 3.28C15.0369 3.00267 14.4929 2.864 13.8049 2.864C13.0529 2.864 12.4795 3.016 12.0849 3.32C11.6955 3.61867 11.5009 4 11.5009 4.464C11.5009 4.832 11.6102 5.12533 11.8289 5.344C12.0475 5.56267 12.3969 5.74933 12.8769 5.904L13.6609 6.192V7.328Z" fill="#1A181B"/>
</svg>
